<?xml version="1.0" encoding="UTF-8"?>
<svg id="_Слой_2" data-name="Слой 2" xmlns="http://www.w3.org/2000/svg" viewBox="0 0 703.64 598.6">
  <defs>
    <style>
      .cls-1, .cls-2, .cls-3, .cls-4 {
        fill-rule: evenodd;
      }

      .cls-1, .cls-5 {
        fill: #fff;
      }

      .cls-6, .cls-2 {
        fill: #b4221b;
      }

      .cls-7, .cls-4 {
        fill: #ffc600;
      }

      .cls-8, .cls-3 {
        fill: #d9d8d6;
      }
    </style>
  </defs>
  <g id="Layer_23" data-name="Layer 23">
    <g>
      <path class="cls-4" d="M455.91,185.2c-.41-28.94-13.28-72.02-23.78-91.44-16.3-30.16-45.65-62.77-54.35-72.69-8.7-9.92-18.07-15.9-21.47-17.8-5.57-3.12-12.23-1.49-7.74,5.71,4.48,7.2,9.65,14.27,9.65,14.27-8.97-3.53-20.65-6.93-23.1-3.67-2.45,3.26,14.13,9.51,16.44,12.64-12.91,14.54-70.92,74.18-79.89,90.22-1.9,24.86,28.4,103.8,80.16,107.47,17.39-3.26,27.99-25,31.11-36.14,16.17,7.74,34.37,11.14,37.09,9.78-8.56-5.98-21.6-19.97-22.96-33.29,2.04-6.66,8.15-12.64,10.87-15.08-.54,5.98-1.49,9.51.14,11.41,1.63,1.9,12.36,11.14,22.42,14.54,10.05,3.4,21.87,5.03,25.41,4.08Z"/>
      <g>
        <path class="cls-1" d="M377.78,21.07c-8.7-9.92-18.07-15.89-21.47-17.8-5.57-3.12-12.23-1.49-7.74,5.71.15.24.3.47.45.71,2.7-.71,6.96.08,10.83,3.57,20.79,18.75,54.82,55.04,70.92,95.58,12.15,30.6,14.1,61.09,14.24,75.84,4.93.8,9.05,1.02,10.9.52-.41-28.94-13.28-72.02-23.78-91.44-16.3-30.16-45.65-62.77-54.35-72.69Z"/>
        <path class="cls-1" d="M354.46,17.92c2.16,3.14,3.76,5.33,3.76,5.33-8.97-3.53-20.65-6.93-23.1-3.67-2.45,3.26,14.13,9.51,16.44,12.64-12.91,14.54-70.92,74.18-79.89,90.22-.28,3.71.16,8.64,1.28,14.32,14.24-23.5,53.65-80.23,88.12-99.85,4.69-5.09,4.08-8.56-1.02-13.86-1.64-1.71-3.63-3.48-5.59-5.12Z"/>
      </g>
      <path class="cls-1" d="M397.07,170.25c1.65-5.4,5.96-10.31,8.99-13.29.33-1.23.72-2.46,1.27-3.69-5.3,3.06-13.25,10.19-15.28,14.47-1.8,3.78,3.16,22.11,15.49,33.63,8.65,2.36,10.91,2.97,12.5,2.17-8.56-5.98-21.6-19.97-22.96-33.29Z"/>
      <path class="cls-3" d="M319.22,53.41c21.47,10.05-5.71,67.39-30.03,56.38-24.32-11.01,10.66-65.46,30.03-56.38Z"/>
      <path class="cls-1" d="M319.22,53.41c-19.37-9.07-54.35,45.38-30.03,56.38.08.04.16.05.24.09-2.72-7.26-2.67-19.12,6.83-32.83,11.01-15.9,24.86-18.75,30.16-8.56.2-.27.37-.54.56-.81-.16-6.47-2.49-11.8-7.77-14.27Z"/>
      <path class="cls-1" d="M409.17,193.62c-4.08-5.71-12.77-16.98-12.09-23.37.68-6.39,10.87-15.08,10.87-15.08-1.22,7.07-1.49,10.87,2.31,13.86,3.8,2.99,19.43,12.64,19.43,12.64-9.1,2.45-17.26,9.92-20.52,11.96Z"/>
      <path class="cls-1" d="M379.68,89.41c23.37,2.04,95.65,17.26,110.05,23.23-11.68,21.06-16.58,28.53-20.92,29.75-4.35,1.22-17.93-.54-17.93-.54-1.77-5.98-7.61-22.15-9.51-27.04-9.92,8.15-13.99,15.08-16.98,17.39-2.99,2.31-2.99,4.35-12.36,3.53-9.37-.82-31.39-1.36-33.97-7.2-2.58-5.84.68-32.74,1.63-39.13Z"/>
      <path class="cls-1" d="M404.28,301.23c12.09-3.53,50.41-37.09,54.35-64.13-19.56-24.86-34.24-37.5-36.68-39.27-.95,5.98-2.99,6.11-2.99,6.11-5.98-.95-31.66-9.37-38.31-12.23-2.04,14.67-11.68,38.86-30.43,38.45-18.75-.41-68.75-29.75-79.45-111.19-49.08,1.82-155.87,14.86-184.4,25.73,26.9,23.37,52.44,62.5,52.99,99.18,13.59,3.26,44.29.82,44.29.82-8.97,27.45-16.03,67.39-17.39,92.39,60.05-1.09,228.26-14.95,228.26-14.95-2.45-9.78-3.26-24.18-3.53-29.62,3.8,1.36,13.31,8.7,13.31,8.7Z"/>
      <path class="cls-3" d="M322.35,273.51c14.9,2.06,14.44,35.62-9.17,31.79-21.4-3.46-9.99-34.44,9.17-31.79Z"/>
      <path class="cls-1" d="M331.64,282.83c-1.38-4.81-4.55-8.66-9.29-9.32-17.32-2.4-28.22,22.64-14.35,30.03-1.52-7.02.68-13.63,3.55-16.99,3.17-3.7,11.66-9.35,20.09-3.73Z"/>
      <path class="cls-2" d="M487.48,108.7c-35.02-10.34-68.73-16.63-104.78-21.65-5.07-.71-5.97-.18-6.45,4.5-.9,8.76-2.22,21.7-2.39,28.63-.18,7.71,1.54,12.06,9.04,14.16,10.47,2.94,34.19,5.42,38.94,2.7,9.13-5.23,15.77-18.65,20.52-21.26,0,.07,4.23,10.46,4.69,11.77.17-4.1.43-8.79-.39-12.93-1.1-5.57-5.93-4.05-9.07-1.01-5.39,5.23-15.67,19.12-19.31,19.88-1.98.41-24-1-34.09-3.97-5.17-1.52-5.85-4.13-5.56-9.83.46-9.25,1.22-18.11,2.31-27.83,36.92,4.75,70.15,10.8,106.13,21.49-4.45,9.11-8.66,16.1-15.17,24.09-2.65,3.25-4.56,3.83-18.78,2.23-.8-.09-1.61-.32-2.43-.45.26,1.56.53,3.12.79,4.69,17.11,1.98,18.3,1.81,23.38-3.52,5.97-6.27,13.47-17.68,16.65-25.03,2.34-5.4.3-5.37-4.04-6.65h0ZM477.87,116.16c2.31.63-.27,4.61-1.72,4.33-5.54-1.05-23.2-5.56-23.4-5.61-1.91-.52-1.68-5.59.47-5.12,5.65,1.26,18.68,4.76,24.66,6.39h0ZM473.85,124.54c1.26.32-.38,4.45-2.14,4.16-3.39-.56-16.1-3.18-19.79-4.01-1.66-.38-1.04-5.23.38-4.99,4.72.79,18.45,4.06,21.55,4.84h0ZM466.77,136c-1.53-.2-14.09-1.81-15.59-2.17-1.56-.38-1.37-5.52.33-5.25,2.92.46,14.37,2.42,17.17,3.14,2.03.52-.45,4.48-1.92,4.28h0ZM385.72,118.57c10.79,1.35,23.31,3.75,34.65,5.11,2.12.25-.27,4.55-2.29,4.58-4.32.07-28.08-3.36-32.38-4.51-1.49-.4-1.86-5.41.02-5.18h0ZM427.26,114.45c2.93.33-.04,5.48-2.66,5.21-14.13-1.46-24.8-3.16-38.06-5.33-2.1-.34-2.14-6.04-.03-5.78,8.1,1.02,33.3,5.05,40.75,5.9h0ZM433.26,105.67c2.52.44.55,5.35-1.72,5.03-15.34-2.2-30.18-4.07-44.68-6.85-1.65-.32-1.62-5.69.03-5.53,7.82.79,38.72,6.02,46.37,7.36Z"/>
      <path class="cls-2" d="M439.24,76.73c1.83-5.75,4.78-14.53,4.68-21.83-.15-10.74-9-15.57-18.46-18.5-15.12-4.68-33.79-8.73-49.61-11.17-13.73-2.11-18.78-2.41-30.3,7.47-5.43,4.66-12.16,12.58-17.6,20.58-6.94-3.14-5.7-3-12.97-3.33-19.84-.91-40.2,28.44-36.13,51.97.9,5.21,2.07,6.21,6.7,11.68,7.43,8.79,12.95,15.77,27.81,13.09,26.26-4.75,42.29-45.36,30.27-62.36,4.01-6.17,8.17-12.02,12.6-16.44,7-7.01,10.38-7.26,20.64-5.9,15.8,2.1,29.68,5.2,44.9,9.41,4.5,1.24,7.81,2.82,6.96,7.58-.76,4.26-2.05,8.52-3.56,12.77-1.85-.03-3.76.07-5.59.54.67,1.04,10.88,19.77,13.78,24.44,2.74.89,9.1,1.52,14.51,3.2,1.09-7.93-2.45-18.14-8.62-23.21h0ZM323.92,72.76c-2.23,14.39-13.76,36.96-29.44,36.11-21.74-1.17-8.26-43.65,13.9-52.37,11.18-4.4,17.7,2.33,15.54,16.26Z"/>
      <path class="cls-2" d="M281.58,105.21c-3.55,3.82-8.5,9.72-10.83,13.76-1.88,3.26,1.07,8.28,2.32,5.77,2.7-5.44,8.75-12.43,11.32-15.7,2.16-2.74-.61-6.21-2.81-3.84Z"/>
      <path class="cls-2" d="M365.68,133.64c-2.55-12.35-28.1-8.83-33.68-6.17-12.26,5.85-12.58,35.99,8.82,32.13,9.99-1.8,27.13-14.94,24.86-25.96Z"/>
      <path class="cls-2" d="M384.89,80.54c7.03-2.69,17.84-3.31,25.21-3.57,2.12-.07,3.19-2.85,1.97-4.45-4.66-6.11-22.45,1.48-28.72,4.04-2.94,1.2-1.13,5.01,1.54,3.98Z"/>
      <path class="cls-2" d="M472.59,96.77c-3.04-7.24-4.7-11.47-13.48-17.13-3.72-2.4-7.49,3.22-3.06,6.37,4.21,3,7.88,4.56,12.78,13.21,2.46,4.34,6.1,3.13,3.76-2.45Z"/>
      <path class="cls-2" d="M387.96,196.51c-5.97,36.62-41.15,62.61-63.88,74.31-17.84-17.94-48.01-67.95-55.09-88.21-6.04-17.3-14.31-51.57,1.21-65.73,2.79-2.55-.86-5.01-3.56-2.9-17.37,13.57-8.42,50.95-1.89,69.42,11.6,32.84,32.4,60.38,53.44,87.91-15.95,2.48-22.96,17.81-16.86,28.51,8.3,14.55,32.33,8.73,34.27-10.49.62-6.21-1.66-12.09-6.92-15.7,27.91-16.38,58.07-42.78,63.91-76.02.53-3-4.08-4.14-4.62-1.11h0ZM321.4,301.69c-11.75,5.58-22.75-7.27-14.36-18.93,3.15-4.38,7.96-6.45,13.01-7.44,4.62.13,10.68,4.74,10.57,11.93-.09,6.05-3.74,11.84-9.22,14.43Z"/>
      <path class="cls-2" d="M459.14,233.7c-6.63-8.84-31.19-35.34-37.38-38.34-1.57-.76-3.46.95-2.74,2.11,13.48,13.81,25.35,24.99,37.52,40.33-4.14,24.19-40.04,58-50.19,61.37-1.07-.28-2.03-.77-2.89-1.44-5.15-13.71-8.68-24.71-12.37-38.87.18-5.68-.15-10.56.16-17.04.08-1.69-1.63-5.27-2.76-.03-4.2,19.39-.63,60.9,2.98,80.17.63,3.37,5.96,2.72,5.3-.67-1.53-7.84-2.76-15.74-3.68-23.68,3.57,1.86,7.07,4.15,10.69,5.58,6.45,2.55,44.6-24.71,56.78-62.16.93-2.85,1.08-4.02-1.41-7.34Z"/>
      <path class="cls-2" d="M379.26,194.19c-3.52,11.4-7.28,23.71-18.05,30.35-20.83,12.85-47.68-14.05-59.41-29.69-15.42-20.55-27.18-49.31-27.82-72.26-.14-4.92.2-6.56-5.25-6.33-51.86,2.18-132.2,11.34-188.6,26.52-2.98.8-6.33,5.98-5.31,10.76.61.19,10.13-3.11,13.46-3.55,22.17,13.49,37.56,48.45,44.26,72.54-6.33.78-14.88,1.63-19.4,1.82,3,8.95,16.51,25.33,27.77,24.51,13.7-1,25.45-1.3,38.02-1.71-2.57,8.89-13.65,58.08-13.5,68.15.28,1.56,3.44,1.98,4.07.6,1.5-12.37,7.15-41.07,9.84-49.45,2.05-3.12,27.24-18,31.29-18.85,3.62-.18,6.7-.08,9.72.14,3.73.27,6.47-2.02.21-3.14-18.87-3.37-57.96-3.63-79.16-1.53,1.18-33.2-28.26-83.29-50.83-97.43,35.5-10.04,114.64-21.74,178.21-23.28-1.69,21.57,16.99,58.33,29,74.42,12.88,17.26,39.85,44.61,63.44,33.28,13.24-6.36,18.84-21.67,23.22-34.66,1.08-3.22-4.16-4.49-5.17-1.21Z"/>
      <path class="cls-2" d="M458.24,179.97c-1.26-23.05-6.72-44.98-15.2-65.69-.97.38-2.18,1.09-3.35,1.87,1.99,5.03,3.85,10.11,5.48,15.27-14.03-.97-56.76,10.8-62.69,21.24-3.97,7-7.96,30.55-8.49,36.75-.48,5.58-1.28,18.42.39,23.41,3.95-7.46,7.46-14.83,7.74-17.75,10.03,6.86,27.18,12.22,39.14,10.56,4.98-.69,1.8-17.87,1.06-19.44,2.75-.92,5.5-1.83,8.24-2.75.05,0,14.03,4.43,22.18,4.53,7.02.09,5.8-2.6,5.5-8.01ZM409.35,190.89c-5.26-6.11-7.62-10.93-10.29-18.24-1.58-4.35,4.07-10.68,6.91-13.93-.88,6.63-.88,7.6,3.62,12.11,4.22,4.22,9.43,7.57,14.84,10.14-7.29,3.01-9.01,4.93-15.09,9.93ZM413.79,169.22c-4.73-3.45-4.6-3.41-4.24-8.59.47-6.74,1.83-7.57-.44-8.46-3.42-1.32-14.73,14.38-13.99,18.63,2.07,11.94,9.69,23.42,19.27,30.71-12.93-3.13-21.87-6.39-34.05-14.01,0-8.68.9-27.75,5.41-33.31,9.22-11.35,45.19-20.14,60.57-18.88,4.58,15.92,6.86,30.78,7.23,47.4-16.38.58-27.69-4.69-39.77-13.51Z"/>
      <path class="cls-2" d="M349.9,7.43c-2.69-3.54-.56-6.24,5.85-2.71,9.78,5.39,22.1,18.95,30.01,27.43,17.9,19.19,33.44,41.13,45.29,64.85,1.49.26,3.04.54,4.52.81-12.31-24.53-28.78-47.16-47.5-67.65-8.07-8.84-18.98-21.48-30.69-28.32-7.92-4.63-16.59-.05-10.58,7.89,2.65,3.51,5.41,6.95,7.91,10.41-3.26-1.47-8.22-2.78-12.64-3.22-11.73-1.17-13.76,4.11-2.69,10.17,6.43,3.52,10.17,6.88,15.56,11.39,4.3,3.6,6.38.09,2.72-3.32-4.91-4.58-10.32-8.42-16.27-11.38-5.03-2.5-8.35-4.82.6-3.63,10.44,1.38,12.19,4.42,19.94,9.51,8.45,5.55,7.58,2.76,2.81-4.02-4.14-5.89-10.11-11.96-14.86-18.22Z"/>
    </g>
  </g>
  <g id="Layer_8" data-name="Layer 8">
    <g>
      <path class="cls-4" d="M106.32,550.68c-4.08-52.58,7.74-166.3,14.27-200.54,141.03-19.97,435.32-39.94,494.42-37.5,22.42,28.12,80.3,115.76,84.78,127.99-92.93,24.05-542.92,104.75-593.47,110.05Z"/>
      <path class="cls-1" d="M120.59,350.14c-6.52,34.24-18.34,147.96-14.27,200.54,50.54-5.3,500.53-86,593.47-110.05-4.48-12.23-62.36-99.86-84.78-127.99-1.16-.05-2.44-.08-3.78-.12,15.87,24.15,61.01,95.91,69.94,121.31-6.14,1.23-62.03,10.31-138.82,23.16-12.75-29.08-48.19-108.78-64.47-139.33-2.58.16-5.18.32-7.79.48,12.67,28.02,46.46,108.41,60.07,140.89-58.15,9.75-126.8,21.43-194.48,33.41-3.36-40.76-11.46-133.15-14.58-163.4-2.86.24-5.71.48-8.56.72,2.84,29.46,10.33,123.57,12.22,164.61-75.84,13.48-149.62,27.22-204.99,38.9-3.79-36.51,4-144.57,8.21-184.18-2.51.34-4.98.68-7.39,1.03Z"/>
      <path class="cls-2" d="M703.29,439.69c-11.04-16.68-21.71-33.6-32.66-50.34-3.7-5.65-39.11-59.62-50.63-74.34-3.58-4.57-3.75-4.61-9.47-4.5-125.82,2.44-257.34,10.8-382.35,23.99-35.49,3.75-71,7.73-106.34,12.77-3.37.48-4.03,1.72-4.6,5.57-3.18,21.59-8,68.96-8.66,76.71-2.14,25.24-5.92,88.06-4.82,117.68.21,5.69.24,5.91,3.75,10.33,8.37,10.53,35.44,35.03,37.54,37.13,3.53,3.53,8.6,4.54,13.04,3.53,169.29-38.32,370.92-80.16,522.27-108.42,6.76-1.26,9-4.99,10.33-7.88.97-2.12,15.34-38.1,12.61-42.24h0ZM468.88,320.29c18.33,43.72,43.33,95.9,62.12,146.29-63.41,10.57-129.09,22.07-192.11,33.85-5.64-56.37-10.07-113.76-16.09-170.07,48.63-4.28,97.33-7.59,146.09-10.07h0ZM108.09,548.51c-.28-5.96-.06-31.49.06-35.37,1.62-55.06,7.23-114.08,14.42-160.8,68-8.27,128.01-15.55,196.61-21.68,5.21,56.39,9.95,111.27,15.8,170.5-84.73,15.87-164.41,32.2-226.88,47.35h0ZM535.47,465.84c-19.28-46.72-42.86-102.17-62.77-145.73,42.88-1.99,113.64-5.25,141.95-5.01,11.15,15.93,22.77,32.14,33.78,48.15,16.73,24.33,34.24,51.23,48.87,76.95-52.66,7.68-108.34,16.75-161.83,25.64Z"/>
      <path class="cls-6" d="M645.37,380.1c-2.45-8.15-12.77-27.65-31.73-38.65-22.82-13.25-47.2-11.51-61.06-8.02-22.62,5.71-45.02,25.98-33.1,55.03,13.04,31.79,59.93,53.5,101.22,40.35,30.3-9.65,28.4-36.28,24.66-48.71Z"/>
      <path class="cls-8" d="M598.04,364.5c-5.58-5.41-14.31-6.82-20.99-5.45-8.02,1.65-10.57,9.2-5.54,14.83,5.02,5.62,14.78,8.31,23.17,6.13,8.99-2.33,8.95-10.11,3.36-15.52Z"/>
      <path class="cls-5" d="M627.03,357.27c-16.92-18.95-41.98-25.27-66.24-21.6-30.44,4.6-38.31,28.12-20.38,48.5,16.27,18.49,44.13,29.56,71.33,23.44,32.61-7.34,32.2-31.39,15.28-50.34ZM589.69,403.27c-.35-5.22-1.08-16.38-1.18-19.29-5.87.37-12-1.57-16.3-4.68-1.94,2.14-7.5,8.29-12.7,14.1-2.8-1.66-5.43-3.5-7.86-5.49,6.3-3.66,13.34-7.85,17.94-10.92-.87-.95-1.64-1.93-2.14-2.99-6.82,2.35-15.47,5.35-22.22,7.7-.15-.18-.33-.34-.48-.52-15.59-18.46-7.18-37.95,17.44-41.44,5.11-.72,10.45-1.03,15.83-.8,1.37,7.27,3.24,16.18,3.24,16.18,5.46-.08,10.5,1.37,14.43,3.55,2.23-2.35,6.72-7.15,11.09-12.19,2.38,1.29,4.71,2.76,6.96,4.44-4.91,3.45-10.75,7.62-14.3,10.36,1.04.91,1.95,1.87,2.62,2.86,6.24-3.03,13.34-6.29,17.54-8.19.35.34.72.66,1.06,1.01,15.62,16.06,17.58,39.4-10.46,45.34-6.7,1.42-13.64,1.66-20.49.96Z"/>
      <path class="cls-6" d="M309.42,408.13c-3.76-23.15-21.03-38.82-37.46-47.66-28.8-15.47-86.31-10.3-116.3,20.35-12.5,12.77-21.99,38.34-21.87,55.47.27,40.22,35.59,70.68,93.2,60.59,57.46-10.06,89.71-44.05,82.44-88.75Z"/>
      <path class="cls-8" d="M219.28,390.29c9.86-1.06,19.59,1.74,21.69,11.32,1.75,8-3.75,17.94-21.13,19.78-15.95,1.68-21.76-6.6-21.15-14.32.64-8.14,7.2-15.35,20.6-16.79Z"/>
      <path class="cls-5" d="M218.01,358.3c-45.65,4.89-66.96,29.58-70.18,57.2-2.79,24.04,19.02,58.35,73.03,50,55.42-8.57,77.04-41.37,71.06-68.61-7.16-32.65-40.32-42.19-73.91-38.59ZM245.02,400.59s24.45-5.4,39.34-8.34c.54,1.65.98,3.37,1.32,5.18,4.35,23.37-21.34,56.24-70.36,61.75,1.46-11.81,3.51-32.61,3.51-32.61-7.16.5-13.83-.87-18.63-4.22-5.51,3.68-20.55,13.72-33.5,22.53-3.04-3.21-5.39-6.76-7.15-10.46,13.16-5.41,30.53-12.61,37.08-15.79-.97-1.36-1.92-2.79-2.31-4.55-10.24,3.04-27.81,7.99-37.96,10.78-.69-3.4-.99-6.79-.83-10.03,1.21-24.48,22.57-46.91,62.8-51.22,5.35-.57,10.78-.77,16.13-.55-2.63,7.95-5.63,17.42-7.27,23.88,5.02-.14,10.84,2.57,14.48,6.85,5.33-3.5,17.62-11.59,29.49-19.58,3.07,2.28,5.78,4.95,8.03,8.04-10.32,4.07-26.36,10.46-35.59,14.4.66,1.25,1.19,2.55,1.42,3.95Z"/>
      <path class="cls-6" d="M159.96,509.95c-1.28-4.68-3.49-9.81-3.49-9.81-1.52-3.83-3.77-7.92-13.15-7.6-7.47.25-13.69,5.86-13.86,10.78,0,0-.37,9.3-.19,11.6.25,3.25,5.05,11.52,16.07,9.58,11.02-1.94,16.32-8.27,14.61-14.54Z"/>
      <path class="cls-8" d="M143.6,508.96c-11.94,1.9-15.99-11.66-1-13.51,13.36-1.64,15.94,11.12,1,13.51Z"/>
      <path class="cls-6" d="M664.9,434.26c8.92.94,10.09-4.31,10.28-6.49.14-1.54-.67-8.06-.67-8.06-.69-3.44-2.69-6.43-8.96-6.81-5.88-.35-7.58,3.02-8.58,5.58,0,0-1.44,3.43-2.3,6.56-1.14,4.19,3.23,8.48,10.22,9.22Z"/>
      <path class="cls-8" d="M666.25,414.91c7.25.98,7.1,9.05.09,8.5-9.69-.76-7.31-9.48-.09-8.5Z"/>
      <path class="cls-6" d="M399.69,445.11c7.64-1.43,45.55-5.4,48.2-5.71,2.65-.31,4.99.2,5.91,2.14.92,1.94,5.2,15.79,5.71,18.04.51,2.24-.51,3.26-3.97,3.87-3.46.61-47.59,7.95-50.34,8.15-2.75.2-5.09-.81-5.6-3.36-.51-2.55-3.1-15.59-3.26-18.14-.2-3.16-.1-4.35,3.36-4.99Z"/>
      <path class="cls-7" d="M443.81,448.58c-.5-1.75,2.7-2.19,3.31-.66.61,1.53,2.34,7.53,2.5,8.2.41,1.73-3.41,2.04-3.97.41-.56-1.63-1.53-6.88-1.83-7.95Z"/>
      <path class="cls-7" d="M407.18,462.33c-.4-1.47-1.63-6.98-1.94-8.97-.31-1.99,2.55-2.96,3.21-.31.66,2.65,1.68,6.88,2.14,8.81.46,1.94-2.8,2.7-3.41.46Z"/>
      <path class="cls-7" d="M418.13,451.63c-.27-1.81,2.75-2.65,3.31-.56s1.78,7.34,1.89,8.76c.1,1.43-2.7,2.65-3.36.66-.66-1.99-1.53-6.78-1.83-8.87Z"/>
      <path class="cls-7" d="M431.38,450.15c-.3-1.37,2.29-2.9,3.01-.61.71,2.29,1.73,6.93,1.99,8.36s-2.55,2.39-3.26.31c-.71-2.09-1.48-6.88-1.73-8.05Z"/>
      <path class="cls-6" d="M366.44,415.54c6.25-.57,8.47,2.66,9.1,6.34.63,3.68.72,5.59,1.1,7.23.38,1.64.73,8.6-7.28,9.85-7.97,1.24-12.11-3.23-11.92-7.17.17-3.46.68-8.89.98-10.52.51-2.75,2.85-5.26,8.02-5.72Z"/>
      <path class="cls-6" d="M403,410.33c5.19-.65,8.02,1.85,8.9,4.61.88,2.76,1.16,4.5,1.61,8.28.45,3.78-1.26,9.36-7.69,10.28-6.43.93-11.77-3.33-11.72-7.2.06-3.87,1.03-7.83,1.26-9.76.23-1.93,1.81-5.48,7.63-6.21Z"/>
      <path class="cls-6" d="M430.48,412.36c.64-3.51,3.89-5.35,7.32-5.6,4.69-.34,8.03,1.44,9.09,5.33s1.45,5.63,1.62,8.07c.17,2.45-1.03,8.04-7.47,8.96-7.41,1.07-10.54-3.82-11.21-6.79-.67-2.97.32-8.15.65-9.98Z"/>
      <path class="cls-6" d="M471.93,403.05c5.64-.62,8.74,1.76,9.41,4.93.67,3.17.93,6.33,1.3,8.48.38,2.15-.73,8.45-7.47,9.06-7.87.72-11.46-3.53-11.2-7.6.22-3.47.49-6.01.83-8.24.56-3.66,3.05-6.17,7.13-6.62Z"/>
      <path class="cls-8" d="M361.05,421.92c-.85,6.78,12.55,6.23,11.69-.58-.66-5.26-11-4.96-11.69.58Z"/>
      <path class="cls-8" d="M398.12,417.09c-.91,6.78,12.41,6.38,11.62-.44-.61-5.28-10.88-5.1-11.62.44Z"/>
      <path class="cls-8" d="M433.02,412.7c-.76,6.09,12.08,6.08,11.31-.04-.59-4.73-10.69-4.94-11.31.04Z"/>
      <path class="cls-8" d="M467.86,408.93c-.8,6.09,11.84,5.95,11.02-.17-.63-4.73-10.37-4.8-11.02.17Z"/>
      <path class="cls-6" d="M497.75,447.83c-.54-1.36-5.6-13.45-6.56-13.72-.95-.27-19.94,1.22-20.48,2.45s-2.11,4.69-1.77,6.39c.41,2.07,3.8,15.66,6.66,15.93,2.85.27,21.2-2.75,21.33-3.43.14-.68,1.36-6.25.81-7.61Z"/>
      <path class="cls-8" d="M477.98,450.75c-.75-.07-4.14-10.94-4.08-11.75.08-.97,15.14-2.59,15.89-2.12.75.48,4.76,10.34,4.49,11.29-.27.95-15.56,2.65-16.3,2.58Z"/>
      <path class="cls-6" d="M384.41,466.92c.1-.92-2.8-17.02-3.41-17.73s-21.15,1.74-22.57,3.16c-.41.41-1.29,5.37-1.29,6.49s2.14,17.8,3.67,18.41c1.53.61,22.18-3.29,23.1-3.91s.41-5.5.51-6.42Z"/>
      <path class="cls-8" d="M380.91,466.31c-.2.31-15.35,3.19-16.58,2.78-1.22-.41-3.26-13.08-3.06-14.2.21-1.13,16.97-2.99,17.27-2.78.31.2,2.56,13.89,2.36,14.2Z"/>
      <path class="cls-6" d="M352,342.6c.39,5.12,7.85,50.03,8.87,56.86.64,4.26,7.31,5.39,6.73-.51-.82-8.25-8.28-53.41-8.97-56.55-1.02-4.69-6.93-3.77-6.62.2Z"/>
      <path class="cls-6" d="M383.59,341.38c.68,3.8,11.65,50.33,12.33,53.09,1.12,4.59,7.44,4.99,6.73-.71-.71-5.71-11.98-50.12-12.84-53.29-1.02-3.77-7.13-4.18-6.22.92Z"/>
      <path class="cls-6" d="M413.14,339.03c1.17,4.37,12.27,46.58,13.45,50.75,1.32,4.69,6.93,3.87,6.22-.61-.53-3.36-10.6-40.56-13.76-50.64-1.51-4.84-7.03-3.67-5.91.51Z"/>
      <path class="cls-6" d="M442.69,336.38c6.01,16.61,16.03,45.33,17.32,48.71,2.14,5.6,7.85,3.26,6.42-.82-6.79-19.4-16.33-43.82-17.73-47.49-2.34-6.11-7.47-4.44-6.01-.41Z"/>
      <path class="cls-6" d="M357.81,365.73c9.48-1.02,12.33-2.04,11.72-7.44-.69-6.12-2.65-7.64-11.11-6.83-10.49,1.01-12.23,2.14-12.13,8.66.09,5.62,3.97,6.42,11.51,5.6Z"/>
      <path class="cls-8" d="M348.84,357.48c-.29-1.72,1.53-3.26,8.15-3.87,6.62-.61,9.12-.5,9.68,1.63.51,1.94-1.02,2.85-8.36,3.67-6.95.77-9.17.41-9.48-1.43Z"/>
      <path class="cls-6" d="M397.24,384.79c9.09-1.31,9.53-3.06,8.66-8.36-.82-4.99-2.55-6.32-10.5-5.5-8.6.88-10.78,2.24-10.9,8.66-.1,5.2,2.85,6.62,12.74,5.2Z"/>
      <path class="cls-8" d="M387.26,376.53c-.1-2.14,3.26-3.26,7.54-3.67,4.28-.41,7.85-.71,8.36,1.22.51,1.94-.92,2.65-7.13,3.36-5.91.68-8.69.61-8.76-.92Z"/>
      <path class="cls-6" d="M420.17,354.22c8.25-1.02,11.72-.61,13.04,4.38,2.09,7.86,0,9.07-9.37,10.39-9.14,1.29-12.33.32-12.33-4.28,0-7.85,1.42-9.6,8.66-10.5Z"/>
      <path class="cls-8" d="M414.47,359.41c-.11-2.14,2.14-2.95,7.44-3.36,4.71-.36,7.6-.6,8.25,1.12.82,2.14-2.04,2.85-7.24,3.46-5.52.65-8.36.71-8.46-1.22Z"/>
      <path class="cls-6" d="M451.1,350.14c9.97-.96,10.59-3.64,9.17-9.17-1.12-4.38-2.75-5.38-11.11-4.69-7.34.61-10.39,1.32-10.19,7.44.2,6.11,3.67,7.23,12.13,6.42Z"/>
      <path class="cls-8" d="M441.21,341.17c-.11-1.64,1.63-3.16,7.24-3.46,5.6-.31,7.95-.2,8.76,1.32.81,1.53-.93,2.2-6.52,2.85-6.11.71-9.38.82-9.48-.71Z"/>
    </g>
  </g>
  <g id="Layer_6" data-name="Layer 6">
    <g>
      <path class="cls-4" d="M422.89,289.95c4.76,4.89,18.58,18.06,18.58,18.06.3,5.04,2.61,10.2,2.61,10.2,4.76.95,32.06-.95,32.06-.95l6.9-45.37c-8.39-11.15-24.29-31.12-24.29-31.12-8.83,19.7-19.84,38.18-35.87,49.18Z"/>
      <path class="cls-1" d="M454.69,249.35c9.1,10.38,22.23,27.48,26.51,34.7l1.85-12.17c-8.39-11.15-24.29-31.12-24.29-31.12-1.3,2.9-2.67,5.76-4.07,8.59Z"/>
      <path class="cls-2" d="M435.43,299.07c-4.2-3.41-8.36-7.91-10.46-9.93-1.48-1.43-3.58,1.97-2.43,3.45,2.49,3.2,7.85,7.62,9.27,8.67,1.69,1.25,4.5-1.48,3.62-2.19Z"/>
      <path class="cls-2" d="M485.28,272.78c-5.57-8.33-21.01-29.6-25.5-33.42-1.17-1-2.74,2.48-1.76,3.68,8.28,10.21,14.67,19.73,22.38,30.27,1.11,1.52,6.62,2.06,4.88-.53Z"/>
      <path class="cls-2" d="M440.28,310.56c-.37,2.68,1.61,7.41,2.83,8.89.95,1.15,3.11-1.05,2.7-1.72-1.77-2.86-2.23-7.33-1.85-9.7.24-1.5-3.4.5-3.68,2.53Z"/>
      <path class="cls-4" d="M456.62,280.03c2.76-10.96,5.97-15.8,10.44-15.05,4.47.75,8.26,1.9,9.97,5.33,1.71,3.43,2.24,4.11,6.46,3.77,4.22-.34,5.83.64,7.27,4.2,1.44,3.56.9,3.41,4.7,3.47,3.8.06,6.76,2.29,7.23,6.78.47,4.49,1.14,4.77,3.58,5.63,2.43.86,6.01,6.21,2.09,13.22-3.92,7-12.85,21.26-28.78,23.44-11.3,9.33-12.25,9.58-15.94,10.61-4.03,5.37-10.72,7.57-13.55,5.76-2.33,1.46-6.33-1.56-7.1-6.37-.77-4.8,9.05-29.61,10.24-36.25-7.4,3.82-9.05,5.02-14.24,6.7-5.19,1.68-9.82,2.15-13.74.73-3.92-1.42-8.75-4.9-.81-8.3,7.94-3.4,24.52-11.96,32.19-23.66Z"/>
      <path class="cls-1" d="M509.91,299.63c-.5-2.95-2.25-4.98-3.66-5.47-2.43-.86-3.11-1.14-3.58-5.63-.28-2.65-1.48-4.41-3.15-5.5-1.44-.59-3.25-.94-4.58-1.28-3.21-.05-2.83-.09-4.2-3.47-.15-.37-.32-.61-.48-.93-.87-1.17-1.72-2.23-2.44-2.62-.65-.35-1.58-.51-2.57-.64-.56-.02-1.09-.06-1.78,0-4.02.32-4.7-.32-6.24-3.35-1.71-1.56-3.81-3.42-5.96-4.73-1.31-.42-2.7-.77-4.23-1.03-.96-.16-1.85-.01-2.7.35-2.08,1.23-3.78,3.71-5.09,6.51-.94,2.21-1.82,4.89-2.65,8.19-.02.03-.05.06-.07.09-.18.86-.36,1.72-.5,2.58-1.48-.7-8.19,9.79-14,13.09-2.74,1.55-6.8,3.13-10.62,4.56-2.66,1.38-5.08,2.52-6.99,3.33-7.94,3.4-3.1,6.88.81,8.3.65.24,1.35.35,2.04.48.51.06,1.01.13,1.58.17.14-2.99,4.89-5.84,11.01-8.56,5.58-2.48,13.92-11.4,15.85-19.14-.51,3.86-.97,8.43-2.68,16.15-.29,1.31-.62,2.68-.98,4.08.39-.2.73-.38,1.16-.6-1.2,6.64-11.01,31.45-10.24,36.25.24,1.52.83,2.83,1.56,3.9.46.38.96.69,1.58.8,3.67.68,6.11-.82,6.66-3.67.14-6.25,5.84-20.92,7.88-26.22,2.04-5.3,3.67-20.92,5.3-25.41,1.63-4.48,7.88-9.24,9.37-9.51,1.49-.27.14,1.9-1.22,4.76-1.36,2.85-7.88,26.09-9.1,29.08-1.22,2.99,7.47,0,10.33-5.71,2.85-5.71,6.25-18.75,13.59-19.43,0,2.99-.54,6.25,1.9,7.88,2.45,1.63,8.29-1.9,7.74,1.36-.54,3.26,3.12,4.76,3.12,8.02s-6.52,15.76-7.88,18.21c.59-.39,1.2-.89,1.81-1.4.32-.26.64-.52.95-.79,2.12-1.89,4.24-4.28,6.17-6.68,2.47-3.2,4.32-6.32,5.62-8.63,1.1-1.97,1.57-3.79,1.68-5.43,0-.79-.03-1.57-.11-2.31Z"/>
      <path class="cls-2" d="M511.75,299.29c-1.16-4.46-1.82-5.52-4.19-6.89-2.61-1.51-2.53-1.04-2.98-4.36-.83-6.04-3.03-7.83-8.37-7.91-2.28-.04-3.15-1.23-3.58-2.28-2.38-5.76-5.65-6.01-9-5.66-4.86.51-3.25-.26-6.21-3.79-1.5-1.79-3.3-3.4-5.36-4.4-4.81-2.34-9.2-.92-12.06,3.34-2,2.97-3.99,6.61-4.73,9.88-2.81,3.4-5.1,7.41-7.98,10.75-6.77,7.82-8.81,7.82-17.86,11.88-3.38,1.55-6.42,2.47-9.71,4.18-1.53.8-4.57,7.12,5.4,10.3,3.62,1.15,8.97,1.07,12.54-.12,4.33-1.44,7.48-3.52,11.95-5.59-1.46,8.45-4.21,13.98-6.42,20.93-2,6.3-5.06,15.94,3.55,18.26.15,1.18,2.95,2.64,5.2,3.08,5.05,1.01,8.68-2.54,11.41-6.33,4.85-.73,14.53-9.52,16.11-10.98,2.92-1.1,7.92.31,17.66-8.48,3.49-3.15,9.48-9.9,12.46-15.28,1.9-3.43,3.24-6.52,2.2-10.54h0ZM441.46,307.62c-5.84,3.51-10.09,4.44-15.19,2.85-5.6-1.74-5.8-3.96-.5-5.71,5.39-1.78,14.99-5.56,19.22-9.44,3.77-3.46,8.12-8.43,9.79-10.76-1.14,5.95-2.27,11.89-3.41,17.84-.77.11-8.58,4.43-9.91,5.23h0ZM494.89,321.85c-5.19,5.4-5.42,4.97-11.68,7,5.39-4.49,8.05-12.13,10.55-18.34,1.17-2.92,2.23-5.91,3.87-8.58,4.88-7.94-3.52-1.05-6.03,5.93-2.43,6.75-4.95,11.05-7.34,14.64-3.94,5.91-8.63,9.48-18.41,16.3,5.71-9.21,13.37-21.38,16.92-31.29,2.1-5.87,3.5-10.79,6.4-16.21,1.89-3.53-.06-4.45-5.29,4.62-1.33,2.31-2.36,5.58-3.81,9.63-2.33,6.5-5.68,12.59-8.75,18.78-1.77,3.57-9.6,16.23-14.03,21.07-1.03,1.12-3.04,2.27-6.1,1.26,3.75-2.7,3.85-5.1,7.12-12.99,2.4-5.78,5.4-11.27,7.49-17.17,3.15-8.88,5.22-18.22,8.05-27.21.65-2.07,1.49-4.07,2.2-6.12,1.74-5.09-4.37,2.7-5.52,6.97-2.29,8.5-4.51,17.04-7.42,25.35-2.01,5.74-4.89,11.16-7.33,16.73-2.07,4.74-3.66,13.82-9.3,11.46-4.22-1.77-1.29-9.93.07-13.57,3.07-8.22,6.25-16.66,7.84-25.33,2.16-11.74,2.97-27.52,8.26-34.61,3.63-4.87,5.18-4.4,9.84-1.78,1.86,1.04,2.89,2.55,3.62,3.91,1.97,3.68,2.53,4.06,6.87,3.44,2.64-.38,4.04-.6,6.28,3.44,1.63,2.93,1.61,4.21,6.13,4.4,4.56.2,4.97,1.93,5.6,6.07.41,2.66.92,3.79,3.91,5.53,2.52,1.46,2.71,1.45,3.12,4.76.37,2.94.28,3.81-1.96,7.76-2.51,4.43-7.69,10.49-11.2,14.14Z"/>
    </g>
  </g>
  <g id="Layer_7" data-name="Layer 7">
    <g>
      <path class="cls-7" d="M164.81,372.35c6.73,6.93,27.72,10.6,33.02,13.25s25.48,28.74,30.37,35.26c4.89,6.52,8.97,8.56,14.06,6.11,5.3,4.48,8.56,4.69,11.21-.82,8.76,3.26,8.97,1.83,10.39-3.87,5.3.41,7.95-3.26,5.91-10.6-2.04-7.34-7.95-26.49-9.78-31.59-1.83-5.09-14.47-28.12-16.51-30.16-2.04-2.04-8.97-5.91-8.97-5.91,13.04-1.02,22.01-7.74,24.46-14.06,2.45-6.32-2.45-9.58-10.19-5.5-7.74,4.08-16.51,6.11-32.61,4.28-16.1-1.83-25.07.41-27.31.41-14.06-4.69-23.44-12.84-38.93-29.96-15.49-17.12-43.41-75.2-43.41-75.2,11.41-1.43,28.33-1.43,28.33-1.43-6.93-23.03-21.6-64.4-47.89-73.37-28.33,8.56-71.33,23.84-76.83,30.37-5.5,6.52-7.34,17.32-7.54,26.7-.2,9.37,39.33,66.24,81.52,102.31,42.19,36.07,56.05,43,59.92,46.06,3.87,3.06,20.79,17.73,20.79,17.73Z"/>
      <path class="cls-1" d="M86.96,149.19c-28.33,8.56-71.33,23.84-76.83,30.37-5.5,6.52-7.34,17.32-7.54,26.7-.05,2.2,2.12,7.04,5.97,13.6.2-13.7,5.13-29.71,10.67-34.66,7.02-6.27,47.83-20.86,81.43-27.77-4.17-3.67-8.72-6.54-13.7-8.23Z"/>
      <path class="cls-1" d="M259.99,380.1c-1.83-5.09-14.47-28.12-16.51-30.16-1.65-1.65-6.44-4.46-8.23-5.49-8.58-4.05-17.11-7.35-17.11-7.35,13.04.81,19.02.27,24.73-2.17,5.71-2.45,9.24-7.61,11.96-7.88,1.26-.13,3.04.22,4.72.68.57-4.78-4.01-6.82-10.77-3.26-7.74,4.08-16.51,6.11-32.61,4.28-16.1-1.83-25.07.41-27.31.41-14.06-4.69-23.44-12.84-38.93-29.96-15.49-17.12-43.41-75.2-43.41-75.2-10.12-20.04-21.54-36.34-29.69-38.52-6.25-3.8-13.86-5.43-16.03-4.08-2.17,1.36,11.96,10.05,20.92,21.2,11.14,13.86,22.83,48.91,35.87,69.56,9.68,15.33,39.72,49.77,49.46,56.52,13.31,9.24,60.32,19.02,66.85,24.73,6.52,5.71,18.48,24.73,21.2,29.35,2.67,4.54,7.71,28.49,15.12,35.49.41-1.68.3-3.86-.44-6.55-2.04-7.34-7.95-26.49-9.78-31.59Z"/>
      <path class="cls-2" d="M270.72,409.83c-3.7-11.49-8.57-31.03-14.33-40.92-2.63-4.52-5.83-8.73-7.85-13.55-2.76-6.6-3.3-7.41-9.02-10.34,9.1-.83,17.24-5.19,21.05-13,3.89-7.96-2.35-14.59-10.22-10.61-5.49,2.77-13.56,6.75-21.37,6.76-10.52,0-21.19-2.65-31.7-2.39-9.29.23-8.37,1.8-14.29-.48-10.71-4.13-18.22-10.74-30.58-27.14-16.92-22.45-30.97-45.22-42.3-70.85,7.7-.11,17.4-.87,25-2.3,2.07-.39.4-6.08-1.25-5.77-10.88,2.01-16.02,2.25-26.35,2.24-7.52-16.59-13.5-31.75-31.61-37.89-6.12-2.08-4.22.95-2.68,1.77,17.45,9.22,22.5,21.97,30.26,38.66,12.86,27.65,16.97,38.82,43.83,75.39,17.29,23.53,29.57,29.26,42.7,32.41,18.53,4.45,26.96,5.72,44.18,14.71,7.4,3.87,6.71,3.01,10.73,10.12,2.6,4.59,5.2,9.18,7.81,13.76,5.57,9.8,6.11,14.27,9.48,25.67,1.06,3.6,2.93,10.53,5.01,16.02,2.72,7.18.31,8.79-2.65,8.56-.45-5.03-3.52-10.75-5.66-16.03-1.05-2.6-3.05-8.88-4.87-13.84-1.98-5.41-4.45-8.71-7.23-13.65-3.06-5.42-5.89-10.02-8.78-15.52-2.22-4.23-1.63,3.14.39,6.85,1.97,3.63,4.01,7.61,6.33,11.6,2.15,3.71,4.92,7.13,6.25,11.21,1.44,4.4,2.89,8.8,4.33,13.2,2.03,5.32,5.39,11.78,6.11,16.12.96,5.76-2.42,5.8-6.55,4.31.83-4.02-9.26-25.92-9.86-29.68-.24-1.52-7.38-12.06-8.5-13.76-2.87-4.38-5.85-8.7-8.47-13.24-1.38-2.39-2.08.86.25,5.89,1.07,2.3,2.98,5.17,5.48,9.04,10.97,16.93,4.86,3.7,13.17,26.16,1.34,3.64,2.39,7.39,3.81,10.99,2.76,7.02-1.03,8.54-6.23,5.71.59-2.39.69-4.18-1.02-7.11-3.19-5.47-5.08-10.91-7.4-14.73-3.08-5.06-5.66-8.25-6.72-9.78-3.8-5.52-7.66-11.01-11.27-16.65-.93-1.46-3.03-2.85-.48,4.18.74,2.04,2.29,4.43,4.8,8.05,2.88,4.16,6.07,7.61,8.71,11.94,2.84,4.65,4.23,9.16,9.06,18.28,3.05,5.78-.68,7.85-5.65,3.78-4.96-4.06-10.91-12.88-15.99-19.91-4.84-6.69-14.24-20.15-21.67-21.8-14.87-3.31-25.35-6.51-36.47-17.17-10.93-10.47-14.17-12.1-27.25-20.57-27.62-17.88-57.5-45.77-82.4-72.96-15.19-16.58-32.68-35.85-42.3-56.2-4.34-9.19-4.6-12.24-2.33-22.21,3.27-14.3,8.9-14.39,21.64-20.47,18.73-8.95,44.81-16.98,64.92-21.27,3.29-.7-.65-4.62-3.96-3.88-23.09,5.1-41.19,11.4-62.57,20.63-17.02,7.35-21.38,7.8-24.98,24.42-2.86,13.21-.59,20.78,6.15,32.47,9.52,16.52,25.9,34.82,38.71,48.88,24.41,26.79,52.34,53.6,81.59,73.79,13.25,9.14,16.88,9.26,28.79,20.63,13.88,13.26,20.64,14.14,37.75,18.21,8.42,2.01,15.06,13.13,20.52,20.05,4.87,6.18,12.36,17.67,19.03,21.62,2.27,1.34,5.88,2.17,8.45.87,1.63,1.7,9.92,4.54,12.02-.38,2.67,1.53,9.68,1.85,10.59-4.46,5.03.48,9.22-4.09,5.9-14.45h0ZM256.48,330.79c-5.36,9.5-13.99,10.2-23.96,10.91-.67-.17-10.27-6.89-34.71-11.92,6.83-.76,20.6,1.22,30.9,1.82,7.31.43,16.43-3.22,22.72-6.67,6.41-3.52,7.53,1.46,5.05,5.86Z"/>
      <path class="cls-3" d="M152.68,363.79c-4.38-7.34-4.89-19.36,3.77-29.35,8.66-9.99,18.04-12.94,27-9.68,1.32-3.77-4.89-6.73-7.44-7.74-2.55-1.02-19.16-6.42-30.77,11.21-11.62,17.63-8.87,28.84-1.32,33.73,7.54,4.89,7.85,2.24,8.76,1.83Z"/>
      <path class="cls-1" d="M169.29,324.77c5.88-3.37,8.32-2.12,14.16,0,1.32-3.77-4.89-6.73-7.44-7.74-2.42-.97-17.47-5.84-28.93,8.69,6.46-1.43,17.51-4.92,22.2-.95Z"/>
      <path class="cls-2" d="M179.28,316.92c-9.58-5.91-23.84-6.73-36.48,11.01-13.07,18.34-7.74,29.35.61,35.67,7.45,5.63,12.94,4.79,15.18,3.16-1.43-2.04-4.08-3.77-4.08-3.77-5.71-5.91-2.95-20.79,3.97-28.12,6.93-7.34,16.92-11.21,23.44-8.36,1.63.61,3.46,1.02,3.46,1.02,1.63-2.65,1.49-5.91-6.11-10.6ZM154.11,333.84c-4.89,5.71-11.31,21.81-3.77,29.45-12.84-5.3-15.59-17.63-3.36-34.14,11.58-15.63,25.58-14.06,34.54-6.62-8.46-2.34-20.35,3.07-27.41,11.31Z"/>
    </g>
  </g>
</svg>