<svg width="206" height="175" viewBox="0 0 206 175" fill="none" xmlns="http://www.w3.org/2000/svg">
<path fill-rule="evenodd" clip-rule="evenodd" d="M133.08 54.829C132.961 46.4162 129.22 33.893 126.167 28.2477C121.429 19.4803 112.897 10.0007 110.368 7.117C107.839 4.23329 105.115 2.49493 104.127 1.94261C102.507 1.03563 100.571 1.50947 101.877 3.60248C103.179 5.6955 104.682 7.75072 104.682 7.75072C102.074 6.72456 98.679 5.73619 97.9668 6.68386C97.2546 7.63153 102.074 9.44839 102.746 10.3583C98.9929 14.585 82.1296 31.9221 79.5221 36.5849C78.9698 43.8116 87.7779 66.7592 102.824 67.826C107.88 66.8784 110.961 60.5586 111.868 57.3203C116.568 59.5703 121.859 60.5586 122.65 60.1633C120.161 58.4249 116.371 54.3581 115.975 50.486C116.568 48.55 118.345 46.8116 119.135 46.1023C118.978 47.8407 118.702 48.8668 119.176 49.4191C119.65 49.9715 122.769 52.6575 125.693 53.6459C128.615 54.6342 132.051 55.1081 133.08 54.8319V54.829Z" fill="#FFC600"/>
<path fill-rule="evenodd" clip-rule="evenodd" d="M110.368 7.117C107.839 4.23329 105.115 2.49784 104.127 1.94261C102.507 1.03563 100.571 1.50947 101.877 3.60248C101.92 3.67225 101.964 3.73911 102.007 3.80888C102.792 3.60248 104.031 3.83213 105.156 4.84666C111.199 10.2972 121.092 20.8466 125.772 32.6314C129.304 41.5267 129.871 50.3901 129.911 54.6778C131.344 54.9104 132.542 54.9743 133.08 54.829C132.961 46.4162 129.219 33.893 126.167 28.2477C121.429 19.4803 112.897 10.0007 110.368 7.117Z" fill="white"/>
<path fill-rule="evenodd" clip-rule="evenodd" d="M103.589 6.20117C104.217 7.11396 104.682 7.75058 104.682 7.75058C102.074 6.72443 98.679 5.73606 97.9668 6.68373C97.2546 7.6314 102.074 9.44825 102.746 10.3581C98.993 14.5849 82.1297 31.922 79.5221 36.5848C79.4407 37.6632 79.5686 39.0964 79.8942 40.7475C84.0337 33.9162 95.4901 17.425 105.51 11.7215C106.874 10.2419 106.696 9.23313 105.214 7.69244C104.737 7.19535 104.159 6.68082 103.589 6.20408V6.20117Z" fill="white"/>
<path fill-rule="evenodd" clip-rule="evenodd" d="M115.975 50.4829C116.455 48.9131 117.708 47.4858 118.589 46.6195C118.685 46.262 118.798 45.9044 118.958 45.5469C117.417 46.4364 115.106 48.5091 114.516 49.7533C113.993 50.8521 115.435 56.1805 119.019 59.5294C121.533 60.2154 122.19 60.3927 122.653 60.1602C120.164 58.4218 116.373 54.355 115.978 50.4829H115.975Z" fill="white"/>
<path fill-rule="evenodd" clip-rule="evenodd" d="M93.3446 16.5181C99.5859 19.4396 91.6847 36.1081 84.615 32.9076C77.5453 29.707 87.7138 13.8786 93.3446 16.5181Z" fill="#D9D8D6"/>
<path fill-rule="evenodd" clip-rule="evenodd" d="M93.3446 16.5175C87.7138 13.8809 77.5453 29.7093 84.615 32.907C84.6383 32.9186 84.6615 32.9215 84.6848 32.9331C83.8941 30.8227 83.9086 27.375 86.6702 23.3896C89.8708 18.7675 93.8969 17.939 95.4376 20.9012C95.4958 20.8227 95.5452 20.7442 95.6004 20.6657C95.5539 18.7849 94.8766 17.2355 93.3417 16.5175H93.3446Z" fill="white"/>
<path fill-rule="evenodd" clip-rule="evenodd" d="M119.493 57.2759C118.307 55.616 115.781 52.3399 115.978 50.4823C116.176 48.6248 119.138 46.0986 119.138 46.0986C118.783 48.1539 118.705 49.2585 119.81 50.1277C120.914 50.9969 125.458 53.8021 125.458 53.8021C122.813 54.5143 120.44 56.6858 119.493 57.2788V57.2759Z" fill="white"/>
<path fill-rule="evenodd" clip-rule="evenodd" d="M110.92 26.9834C117.714 27.5764 138.725 32.0008 142.911 33.7363C139.516 39.8583 138.091 42.0298 136.83 42.3845C135.565 42.7391 131.618 42.2275 131.618 42.2275C131.103 40.4891 129.405 35.7886 128.853 34.3671C125.969 36.7362 124.786 38.7508 123.917 39.4223C123.048 40.0938 123.048 40.6868 120.324 40.4484C117.6 40.2101 111.199 40.0531 110.449 38.3554C109.699 36.6577 110.647 28.838 110.923 26.9805L110.92 26.9834Z" fill="white"/>
<path fill-rule="evenodd" clip-rule="evenodd" d="M118.071 88.5585C121.586 87.5323 132.725 77.7766 133.871 69.9161C128.185 62.6894 123.917 59.015 123.208 58.5005C122.932 60.2389 122.339 60.2766 122.339 60.2766C120.6 60.0005 113.135 57.5528 111.202 56.7214C110.609 60.9859 107.807 68.0179 102.356 67.8987C96.9057 67.7795 82.3709 59.2505 79.2604 35.5762C64.993 36.1052 33.9496 39.8959 25.656 43.0558C33.4757 49.8494 40.9001 61.2243 41.06 71.8871C45.0106 72.8347 53.9349 72.1254 53.9349 72.1254C51.3274 80.105 49.2751 91.7155 48.8797 98.9829C66.3361 98.666 115.234 94.637 115.234 94.637C114.522 91.7939 114.286 87.6079 114.208 86.0265C115.313 86.4219 118.077 88.5556 118.077 88.5556L118.071 88.5585Z" fill="white"/>
<path fill-rule="evenodd" clip-rule="evenodd" d="M94.2546 80.4998C98.5859 81.0986 98.4522 90.8544 91.5889 89.741C85.368 88.7352 88.6848 79.7295 94.2546 80.4998Z" fill="#D9D8D6"/>
<path fill-rule="evenodd" clip-rule="evenodd" d="M96.9552 83.2093C96.554 81.8111 95.6325 80.6919 94.2546 80.5001C89.2197 79.8024 86.0511 87.0814 90.0831 89.2297C89.6412 87.189 90.2808 85.2675 91.1151 84.2907C92.0366 83.2151 94.5046 81.5727 96.9552 83.2064V83.2093Z" fill="white"/>
<path fill-rule="evenodd" clip-rule="evenodd" d="M142.257 32.5902C132.077 29.5844 122.278 27.7559 111.798 26.2966C110.324 26.0902 110.063 26.2443 109.923 27.6048C109.661 30.1513 109.278 33.9129 109.228 35.9274C109.176 38.1687 109.676 39.4332 111.856 40.0436C114.9 40.8983 121.795 41.6192 123.176 40.8285C125.83 39.3082 127.76 35.407 129.141 34.6483C129.141 34.6687 130.371 37.689 130.504 38.0698C130.554 36.878 130.629 35.5146 130.391 34.3111C130.071 32.6919 128.667 33.1338 127.754 34.0175C126.187 35.5379 123.199 39.5756 122.141 39.7966C121.565 39.9157 115.164 39.5059 112.231 38.6425C110.728 38.2006 110.531 37.4419 110.615 35.7849C110.749 33.096 110.969 30.5204 111.286 27.6949C122.019 29.0757 131.679 30.8344 142.138 33.9419C140.844 36.5902 139.621 38.6221 137.728 40.9448C136.958 41.8896 136.403 42.0582 132.269 41.5931C132.036 41.5669 131.801 41.5 131.562 41.4622C131.638 41.9157 131.716 42.3692 131.792 42.8256C136.766 43.4012 137.112 43.3518 138.589 41.8024C140.324 39.9797 142.504 36.6628 143.429 34.5262C144.109 32.9565 143.516 32.9652 142.254 32.5931L142.257 32.5902ZM139.464 34.7588C140.135 34.9419 139.385 36.0989 138.964 36.0175C137.353 35.7123 132.219 34.4012 132.161 34.3867C131.606 34.2355 131.673 32.7617 132.298 32.8983C133.94 33.2646 137.728 34.282 139.466 34.7559L139.464 34.7588ZM138.295 37.1948C138.661 37.2878 138.184 38.4884 137.673 38.4041C136.687 38.2413 132.993 37.4797 131.92 37.2384C131.437 37.128 131.618 35.7181 132.03 35.7879C133.403 36.0175 137.394 36.9681 138.295 37.1948ZM136.237 40.5262C135.792 40.4681 132.141 40 131.705 39.8954C131.251 39.7849 131.307 38.2907 131.801 38.3692C132.65 38.503 135.978 39.0727 136.792 39.282C137.382 39.4332 136.661 40.5843 136.234 40.5262H136.237ZM112.676 35.4594C115.812 35.8518 119.452 36.5495 122.749 36.9448C123.365 37.0175 122.67 38.2675 122.083 38.2762C120.827 38.2966 113.92 37.2995 112.67 36.9652C112.237 36.8489 112.129 35.3925 112.676 35.4594ZM124.751 34.2617C125.603 34.3576 124.74 35.8547 123.978 35.7762C119.871 35.3518 116.769 34.8576 112.914 34.2268C112.304 34.128 112.292 32.471 112.906 32.5466C115.26 32.8431 122.586 34.0146 124.751 34.2617ZM126.496 31.7094C127.228 31.8373 126.655 33.2646 125.996 33.1716C121.536 32.5321 117.222 31.9885 113.007 31.1803C112.528 31.0873 112.536 29.5263 113.016 29.5728C115.289 29.8024 124.272 31.3228 126.496 31.7123V31.7094Z" fill="#B4221B"/>
<path fill-rule="evenodd" clip-rule="evenodd" d="M128.234 23.2973C128.766 21.6258 129.624 19.0735 129.595 16.9514C129.551 13.8293 126.978 12.4252 124.228 11.5735C119.833 10.213 114.406 9.03572 109.807 8.32642C105.816 7.71305 104.348 7.62584 100.999 10.4979C99.4203 11.8526 97.4639 14.1549 95.8825 16.4804C93.8651 15.5677 94.2256 15.6084 92.1122 15.5124C86.3448 15.2479 80.4262 23.7798 81.6093 30.6199C81.871 32.1344 82.2111 32.4251 83.557 34.0153C85.7169 36.5705 87.3215 38.5995 91.6413 37.8205C99.275 36.4397 103.935 24.6345 100.441 19.6926C101.606 17.899 102.816 16.1985 104.103 14.9136C106.138 12.8758 107.121 12.8031 110.103 13.1985C114.696 13.8089 118.731 14.7101 123.156 15.9339C124.464 16.2944 125.426 16.7537 125.179 18.1374C124.958 19.3758 124.583 20.6142 124.144 21.8496C123.606 21.8409 123.051 21.87 122.519 22.0066C122.714 22.3089 125.682 27.7537 126.525 29.1112C127.321 29.3699 129.17 29.5531 130.743 30.0414C131.06 27.7362 130.031 24.7682 128.237 23.2944L128.234 23.2973ZM94.711 22.1432C94.0628 26.3263 90.7111 32.8874 86.1529 32.6403C79.8332 32.3001 83.7518 19.9514 90.1936 17.4165C93.4436 16.1374 95.3389 18.0938 94.711 22.1432Z" fill="#B4221B"/>
<path fill-rule="evenodd" clip-rule="evenodd" d="M82.4027 31.5759C81.3708 32.6864 79.9318 34.4015 79.2545 35.5759C78.708 36.5236 79.5656 37.9828 79.9289 37.2532C80.7138 35.6718 82.4725 33.6398 83.2196 32.6893C83.8475 31.8928 83.0423 30.884 82.4027 31.573V31.5759Z" fill="#B4221B"/>
<path fill-rule="evenodd" clip-rule="evenodd" d="M106.851 39.8402C106.109 36.2501 98.6819 37.2734 97.0599 38.0466C93.4959 39.7472 93.4029 48.5088 99.6238 47.3867C102.528 46.8634 107.51 43.0437 106.851 39.8402Z" fill="#B4221B"/>
<path fill-rule="evenodd" clip-rule="evenodd" d="M112.435 24.4048C114.478 23.6229 117.621 23.4426 119.763 23.3671C120.379 23.3467 120.691 22.5386 120.336 22.0735C118.981 20.2973 113.81 22.5037 111.987 23.2479C111.132 23.5967 111.659 24.7043 112.435 24.4048Z" fill="#B4221B"/>
<path fill-rule="evenodd" clip-rule="evenodd" d="M137.929 29.1219C137.045 27.0173 136.563 25.7877 134.01 24.1423C132.929 23.4446 131.833 25.0784 133.121 25.9941C134.345 26.8661 135.411 27.3196 136.836 29.8342C137.551 31.0958 138.609 30.744 137.929 29.1219Z" fill="#B4221B"/>
<path fill-rule="evenodd" clip-rule="evenodd" d="M113.327 58.1167C111.592 68.762 101.365 76.3172 94.7575 79.7184C89.5715 74.5033 80.8012 59.9655 78.743 54.076C76.9872 49.047 74.5832 39.0848 79.0948 34.9686C79.9058 34.2273 78.8448 33.5122 78.0599 34.1255C73.0105 38.0703 75.6122 48.9365 77.5105 54.3057C80.8826 63.8521 86.929 71.8579 93.0453 79.8608C88.4087 80.5817 86.3709 85.0381 88.1442 88.1486C90.5569 92.3782 97.5424 90.6863 98.1063 85.0991C98.2866 83.2939 97.6238 81.5846 96.0947 80.5352C104.208 75.7736 112.975 68.0992 114.673 58.4365C114.827 57.5644 113.487 57.233 113.33 58.1138L113.327 58.1167ZM93.9784 88.6922C90.5627 90.3142 87.3651 86.5788 89.804 83.1893C90.7197 81.916 92.118 81.3143 93.586 81.0265C94.929 81.0643 96.6906 82.4044 96.6587 84.4945C96.6325 86.2532 95.5714 87.9363 93.9784 88.6892V88.6922Z" fill="#B4221B"/>
<path fill-rule="evenodd" clip-rule="evenodd" d="M134.019 68.9276C132.092 66.3578 124.952 58.6544 123.153 57.7823C122.696 57.5614 122.147 58.0584 122.356 58.3956C126.275 62.4102 129.725 65.6602 133.263 70.1194C132.06 77.1514 121.624 86.9798 118.673 87.9595C118.362 87.8781 118.083 87.7356 117.833 87.5409C116.336 83.5554 115.31 80.3578 114.237 76.2415C114.289 74.5903 114.194 73.1717 114.284 71.288C114.307 70.7968 113.81 69.7561 113.481 71.2793C112.26 76.9159 113.298 88.9827 114.348 94.5844C114.531 95.5641 116.08 95.3751 115.888 94.3897C115.444 92.1106 115.086 89.8141 114.819 87.506C115.856 88.0467 116.874 88.7124 117.926 89.1281C119.801 89.8693 130.891 81.945 134.432 71.0584C134.702 70.2299 134.746 69.8898 134.022 68.9247L134.019 68.9276Z" fill="#B4221B"/>
<path fill-rule="evenodd" clip-rule="evenodd" d="M110.798 57.4423C109.775 60.7562 108.682 64.3347 105.551 66.2649C99.4958 70.0003 91.6906 62.1806 88.2807 57.6341C83.7982 51.6603 80.3796 43.2999 80.1936 36.6284C80.1529 35.1982 80.2517 34.7214 78.6674 34.7883C63.5919 35.422 40.2373 38.0848 23.8421 42.4976C22.9758 42.7301 22.002 44.2359 22.2985 45.6255C22.4758 45.6807 25.2432 44.7214 26.2112 44.5935C32.656 48.515 37.1298 58.6777 39.0775 65.6806C37.2374 65.9073 34.7519 66.1544 33.438 66.2097C34.31 68.8114 38.2374 73.573 41.5106 73.3346C45.4931 73.0439 48.9088 72.9567 52.5629 72.8375C51.8158 75.4218 48.5949 89.7212 48.6385 92.6485C48.7199 93.102 49.6385 93.2241 49.8216 92.8229C50.2577 89.227 51.9001 80.884 52.6821 78.448C53.278 77.541 60.6006 73.2155 61.7779 72.9684C62.8303 72.916 63.7256 72.9451 64.6035 73.0091C65.6878 73.0875 66.4843 72.4219 64.6646 72.0963C59.1791 71.1166 47.8158 71.041 41.653 71.6515C41.9961 62.0004 33.438 47.4394 26.8769 43.329C37.1967 40.4104 60.2024 37.0092 78.6819 36.5615C78.1907 42.8319 83.6209 53.5179 87.1121 58.1952C90.8563 63.2126 98.6964 71.1631 105.554 67.8695C109.403 66.0207 111.031 61.5702 112.304 57.794C112.618 56.858 111.095 56.4888 110.801 57.4423H110.798Z" fill="#B4221B"/>
<path fill-rule="evenodd" clip-rule="evenodd" d="M133.757 53.3087C133.391 46.6082 131.804 40.2332 129.339 34.2129C129.057 34.3234 128.705 34.5298 128.365 34.7565C128.943 36.2187 129.484 37.6954 129.958 39.1954C125.879 38.9135 113.458 42.3349 111.734 45.3698C110.58 47.4047 109.42 54.2506 109.266 56.0529C109.127 57.675 108.894 61.4075 109.38 62.8581C110.528 60.6895 111.548 58.5471 111.63 57.6983C114.545 59.6924 119.531 61.2506 123.007 60.768C124.455 60.5674 123.531 55.5733 123.316 55.1169C124.115 54.8494 124.914 54.5849 125.711 54.3175C125.725 54.3175 129.789 55.6052 132.158 55.6343C134.199 55.6605 133.845 54.8785 133.757 53.3058V53.3087ZM119.545 56.4831C118.016 54.707 117.33 53.3058 116.554 51.1808C116.095 49.9163 117.737 48.0762 118.563 47.1314C118.307 49.0588 118.307 49.3407 119.615 50.6518C120.842 51.8785 122.356 52.8523 123.929 53.5994C121.81 54.4744 121.31 55.0326 119.542 56.486L119.545 56.4831ZM120.836 50.1837C119.461 49.1808 119.499 49.1925 119.603 47.6867C119.74 45.7274 120.135 45.4861 119.475 45.2274C118.481 44.8437 115.193 49.4076 115.409 50.643C116.01 54.114 118.225 57.4512 121.01 59.5703C117.252 58.6605 114.653 57.7128 111.112 55.4977C111.112 52.9744 111.374 47.4309 112.685 45.8146C115.365 42.5152 125.821 39.96 130.292 40.3262C131.624 44.9541 132.286 49.2739 132.394 54.1052C127.632 54.2738 124.345 52.7419 120.833 50.1779L120.836 50.1837Z" fill="#B4221B"/>
<path fill-rule="evenodd" clip-rule="evenodd" d="M102.263 3.15161C101.481 2.12255 102.1 1.33767 103.964 2.36383C106.807 3.93068 110.388 7.87252 112.687 10.3376C117.891 15.9161 122.408 22.294 125.853 29.1893C126.286 29.2649 126.737 29.3463 127.167 29.4247C123.589 22.294 118.801 15.7155 113.359 9.75914C111.013 7.18939 107.842 3.51498 104.437 1.52662C102.135 0.180697 99.6148 1.51209 101.362 3.82022C102.132 4.84056 102.935 5.84055 103.661 6.84636C102.714 6.41904 101.272 6.03823 99.9869 5.91032C96.5771 5.57021 95.9869 7.10508 99.2049 8.8667C101.074 9.88996 102.161 10.8667 103.728 12.1777C104.978 13.2242 105.583 12.2039 104.519 11.2126C103.092 9.88123 101.519 8.76496 99.7892 7.9045C98.327 7.17776 97.3619 6.50334 99.9637 6.84927C102.999 7.25043 103.507 8.13415 105.76 9.61379C108.217 11.2272 107.964 10.4161 106.577 8.44519C105.374 6.73299 103.638 4.96847 102.257 3.14871L102.263 3.15161Z" fill="#B4221B"/>
<path fill-rule="evenodd" clip-rule="evenodd" d="M31.4555 161.073C30.2694 145.788 33.7054 112.73 35.6037 102.777C76.6006 96.9713 162.15 91.1661 179.33 91.8754C185.847 100.05 202.673 125.526 203.975 129.082C176.961 136.073 46.1502 159.532 31.4555 161.073Z" fill="#FFC600"/>
<path fill-rule="evenodd" clip-rule="evenodd" d="M35.6036 102.776C33.7083 112.729 30.2722 145.787 31.4554 161.072C46.1472 159.531 176.958 136.072 203.975 129.081C202.673 125.526 185.847 100.052 179.33 91.8747C178.992 91.8602 178.62 91.8515 178.231 91.8398C182.844 98.8602 195.966 119.721 198.562 127.104C196.777 127.462 180.53 130.101 158.208 133.837C154.501 125.383 144.199 102.215 139.467 93.334C138.717 93.3805 137.961 93.4271 137.202 93.4736C140.885 101.619 150.708 124.988 154.664 134.43C137.76 137.264 117.804 140.659 98.1295 144.142C97.1527 132.293 94.7981 105.436 93.8911 96.6422C93.0597 96.7119 92.2313 96.7817 91.4028 96.8515C92.2284 105.415 94.4057 132.773 94.9551 144.703C72.9087 148.622 51.4611 152.616 35.3652 156.011C34.2635 145.398 36.528 113.985 37.7519 102.471C37.0222 102.569 36.3042 102.668 35.6036 102.77V102.776Z" fill="white"/>
<path fill-rule="evenodd" clip-rule="evenodd" d="M204.992 128.808C201.783 123.959 198.681 119.04 195.498 114.174C194.423 112.532 184.129 96.8427 180.78 92.5636C179.74 91.2352 179.69 91.2235 178.027 91.2555C141.452 91.9648 103.22 94.395 66.8796 98.2293C56.5628 99.3194 46.2402 100.476 35.967 101.942C34.9873 102.081 34.7955 102.442 34.6298 103.561C33.7054 109.837 32.3042 123.607 32.1123 125.86C31.4903 133.197 30.3914 151.459 30.7112 160.069C30.7722 161.723 30.781 161.787 31.8013 163.072C34.2344 166.133 42.1036 173.255 42.714 173.866C43.7402 174.892 45.214 175.185 46.5047 174.892C95.7167 163.752 154.33 151.59 198.327 143.374C200.292 143.008 200.943 141.924 201.33 141.084C201.612 140.467 205.789 130.008 204.995 128.805L204.992 128.808ZM136.85 94.0985C142.179 106.808 149.446 121.976 154.908 136.624C136.475 139.697 117.382 143.04 99.0626 146.465C97.4231 130.078 96.1353 113.395 94.3853 97.0258C108.522 95.7816 122.679 94.8194 136.853 94.0985H136.85ZM31.9699 160.441C31.8885 158.709 31.9525 151.287 31.9873 150.159C32.4583 134.154 34.0891 116.997 36.1792 103.415C55.9465 101.011 73.3912 98.895 93.333 97.113C94.8475 113.505 96.2254 129.459 97.926 146.677C73.2953 151.29 50.1326 156.037 31.9728 160.441H31.9699ZM156.208 136.409C150.603 122.828 143.748 106.709 137.961 94.0462C150.426 93.4677 170.995 92.52 179.225 92.5898C182.466 97.2206 185.844 101.933 189.045 106.587C193.908 113.659 198.998 121.479 203.251 128.956C187.943 131.188 171.757 133.825 156.208 136.409Z" fill="#B4221B"/>
<path d="M188.155 111.485C187.443 109.116 184.443 103.447 178.931 100.25C172.298 96.398 165.211 96.9038 161.181 97.9184C154.606 99.5782 148.094 105.471 151.559 113.915C155.35 123.157 168.981 129.468 180.984 125.645C189.792 122.84 189.239 115.099 188.152 111.485H188.155Z" fill="#B4221B"/>
<path d="M174.397 106.95C172.775 105.378 170.237 104.968 168.295 105.366C165.964 105.846 165.222 108.04 166.684 109.677C168.144 111.311 170.981 112.093 173.42 111.459C176.033 110.782 176.022 108.52 174.397 106.947V106.95Z" fill="#D9D8D6"/>
<path d="M182.824 104.849C177.905 99.34 170.62 97.5028 163.568 98.5696C154.719 99.9068 152.431 106.744 157.644 112.668C162.373 118.043 170.472 121.261 178.379 119.482C187.859 117.349 187.739 110.357 182.821 104.849H182.824ZM171.969 118.221C171.867 116.703 171.655 113.459 171.626 112.613C169.92 112.721 168.138 112.157 166.888 111.253C166.324 111.875 164.708 113.663 163.196 115.352C162.382 114.869 161.618 114.334 160.911 113.756C162.742 112.692 164.789 111.474 166.126 110.581C165.873 110.305 165.649 110.02 165.504 109.712C163.522 110.395 161.007 111.267 159.045 111.95C159.001 111.898 158.949 111.852 158.905 111.799C154.373 106.433 156.818 100.767 163.975 99.7528C165.461 99.5435 167.013 99.4533 168.577 99.5202C168.975 101.634 169.519 104.224 169.519 104.224C171.106 104.2 172.571 104.622 173.713 105.256C174.362 104.573 175.667 103.177 176.937 101.712C177.629 102.087 178.306 102.514 178.96 103.003C177.533 104.006 175.835 105.218 174.803 106.014C175.106 106.279 175.37 106.558 175.565 106.846C177.379 105.965 179.443 105.017 180.664 104.465C180.766 104.564 180.873 104.657 180.972 104.759C185.513 109.427 186.083 116.212 177.931 117.939C175.984 118.352 173.966 118.421 171.975 118.218L171.969 118.221Z" fill="white"/>
<path d="M90.4958 119.633C89.4027 112.904 84.3824 108.348 79.6063 105.779C71.2342 101.282 54.5163 102.785 45.7983 111.694C42.1646 115.407 39.4059 122.84 39.4408 127.819C39.5192 139.511 49.7866 148.366 66.5337 145.433C83.2371 142.508 92.612 132.627 90.4987 119.633H90.4958Z" fill="#B4221B"/>
<path d="M64.2924 114.448C67.1587 114.14 69.9871 114.954 70.5976 117.739C71.1063 120.064 69.5075 122.954 64.4552 123.489C59.8186 123.977 58.1296 121.57 58.307 119.326C58.493 116.96 60.4 114.864 64.2953 114.445L64.2924 114.448Z" fill="#D9D8D6"/>
<path d="M63.9233 105.149C50.653 106.57 44.4582 113.747 43.5222 121.776C42.7112 128.765 49.0512 138.739 64.7518 136.311C80.8621 133.82 87.147 124.285 85.4086 116.367C83.3273 106.875 73.6878 104.102 63.9233 105.149ZM71.775 117.442C71.775 117.442 78.8825 115.872 83.211 115.018C83.3679 115.497 83.4959 115.997 83.5947 116.523C84.8592 123.317 77.3912 132.872 63.1413 134.474C63.5657 131.041 64.1616 124.994 64.1616 124.994C62.0803 125.14 60.1413 124.741 58.746 123.768C57.1442 124.837 52.7722 127.756 49.0076 130.317C48.1239 129.384 47.4408 128.352 46.9292 127.276C50.7547 125.704 55.8041 123.611 57.7082 122.686C57.4262 122.291 57.15 121.875 57.0367 121.364C54.0599 122.247 48.9524 123.686 46.0018 124.497C45.8013 123.509 45.7141 122.523 45.7606 121.582C46.1123 114.465 52.3216 107.945 64.0163 106.692C65.5715 106.526 67.15 106.468 68.7052 106.532C67.9407 108.843 67.0686 111.596 66.5919 113.474C68.0512 113.433 69.743 114.221 70.8011 115.465C72.3506 114.448 75.9232 112.096 79.3738 109.774C80.2662 110.436 81.054 111.212 81.7081 112.111C78.7081 113.294 74.0453 115.151 71.3622 116.297C71.5541 116.66 71.7081 117.038 71.775 117.445V117.442Z" fill="white"/>
<path d="M47.0484 149.232C46.6763 147.872 46.0338 146.38 46.0338 146.38C45.592 145.267 44.9379 144.078 42.2112 144.171C40.0397 144.244 38.2316 145.875 38.1821 147.305C38.1821 147.305 38.0746 150.008 38.1269 150.677C38.1996 151.622 39.5949 154.026 42.7984 153.462C46.0019 152.898 47.5426 151.058 47.0455 149.235L47.0484 149.232Z" fill="#B4221B"/>
<path d="M42.2925 148.944C38.8216 149.496 37.6443 145.555 42.0018 145.017C45.8855 144.54 46.6355 148.249 42.2925 148.944Z" fill="#D9D8D6"/>
<path d="M193.833 127.229C196.426 127.503 196.766 125.976 196.821 125.343C196.862 124.895 196.626 123 196.626 123C196.426 122 195.844 121.13 194.022 121.02C192.312 120.918 191.818 121.898 191.527 122.642C191.527 122.642 191.109 123.639 190.859 124.549C190.527 125.767 191.798 127.014 193.83 127.229H193.833Z" fill="#B4221B"/>
<path d="M194.225 121.604C196.333 121.889 196.289 124.235 194.251 124.075C191.434 123.854 192.126 121.319 194.225 121.604Z" fill="#D9D8D6"/>
<path d="M116.737 130.384C118.958 129.968 129.978 128.814 130.749 128.724C131.519 128.634 132.199 128.782 132.467 129.346C132.734 129.91 133.978 133.936 134.126 134.59C134.275 135.241 133.978 135.538 132.972 135.715C131.967 135.892 119.138 138.026 118.339 138.084C117.539 138.142 116.859 137.849 116.711 137.107C116.563 136.366 115.81 132.575 115.763 131.834C115.705 130.916 115.734 130.57 116.74 130.384H116.737Z" fill="#B4221B"/>
<path d="M129.562 131.392C129.417 130.883 130.347 130.756 130.525 131.2C130.702 131.645 131.205 133.389 131.251 133.584C131.371 134.087 130.26 134.177 130.097 133.703C129.935 133.229 129.653 131.703 129.565 131.392H129.562Z" fill="#FFC600"/>
<path d="M118.914 135.389C118.798 134.962 118.44 133.36 118.35 132.782C118.26 132.203 119.092 131.921 119.283 132.692C119.475 133.462 119.772 134.692 119.906 135.253C120.039 135.817 119.092 136.038 118.914 135.387V135.389Z" fill="#FFC600"/>
<path d="M122.097 132.279C122.019 131.752 122.897 131.508 123.06 132.116C123.222 132.723 123.577 134.25 123.609 134.662C123.638 135.078 122.824 135.433 122.632 134.854C122.441 134.276 122.188 132.883 122.1 132.276L122.097 132.279Z" fill="#FFC600"/>
<path d="M125.949 131.849C125.862 131.451 126.615 131.006 126.824 131.672C127.031 132.337 127.327 133.686 127.403 134.102C127.478 134.517 126.661 134.797 126.455 134.192C126.249 133.584 126.025 132.192 125.952 131.852L125.949 131.849Z" fill="#FFC600"/>
<path d="M107.071 121.788C108.888 121.622 109.534 122.561 109.717 123.631C109.9 124.7 109.926 125.256 110.037 125.732C110.147 126.209 110.249 128.232 107.92 128.596C105.603 128.956 104.4 127.657 104.455 126.511C104.505 125.506 104.653 123.927 104.74 123.453C104.888 122.654 105.569 121.924 107.071 121.791V121.788Z" fill="#B4221B"/>
<path d="M117.699 120.273C119.208 120.084 120.03 120.811 120.286 121.614C120.542 122.416 120.624 122.922 120.754 124.02C120.885 125.119 120.388 126.741 118.519 127.009C116.65 127.279 115.097 126.041 115.112 124.916C115.129 123.791 115.411 122.64 115.478 122.079C115.545 121.518 116.004 120.486 117.696 120.273H117.699Z" fill="#B4221B"/>
<path d="M125.688 120.863C125.874 119.843 126.818 119.308 127.815 119.236C129.179 119.137 130.15 119.654 130.458 120.785C130.766 121.916 130.879 122.422 130.929 123.131C130.978 123.843 130.629 125.468 128.757 125.735C126.603 126.047 125.693 124.625 125.499 123.762C125.304 122.898 125.592 121.392 125.688 120.861V120.863Z" fill="#B4221B"/>
<path d="M137.737 118.157C139.376 117.976 140.278 118.668 140.472 119.59C140.667 120.511 140.743 121.43 140.85 122.055C140.961 122.68 140.638 124.511 138.679 124.689C136.391 124.898 135.347 123.662 135.423 122.479C135.487 121.471 135.565 120.732 135.664 120.084C135.827 119.02 136.551 118.29 137.737 118.16V118.157Z" fill="#B4221B"/>
<path d="M105.504 123.642C105.257 125.613 109.153 125.454 108.903 123.474C108.711 121.945 105.705 122.032 105.504 123.642Z" fill="#D9D8D6"/>
<path d="M116.281 122.239C116.016 124.209 119.888 124.093 119.658 122.111C119.481 120.576 116.496 120.628 116.281 122.239Z" fill="#D9D8D6"/>
<path d="M126.426 120.962C126.205 122.732 129.938 122.729 129.714 120.95C129.542 119.575 126.606 119.514 126.426 120.962Z" fill="#D9D8D6"/>
<path d="M136.554 119.866C136.321 121.637 139.996 121.596 139.757 119.817C139.574 118.442 136.743 118.422 136.554 119.866Z" fill="#D9D8D6"/>
<path d="M145.243 131.174C145.086 130.779 143.615 127.265 143.336 127.186C143.059 127.108 137.539 127.541 137.382 127.898C137.225 128.256 136.769 129.262 136.868 129.756C136.987 130.358 137.972 134.308 138.804 134.387C139.632 134.465 144.966 133.587 145.004 133.39C145.045 133.192 145.4 131.573 145.24 131.177L145.243 131.174Z" fill="#B4221B"/>
<path d="M139.496 132.023C139.278 132.003 138.292 128.843 138.31 128.607C138.333 128.325 142.711 127.854 142.929 127.991C143.147 128.131 144.312 130.997 144.234 131.273C144.155 131.549 139.711 132.043 139.496 132.023Z" fill="#D9D8D6"/>
<path d="M112.295 136.724C112.324 136.457 111.481 131.776 111.304 131.57C111.127 131.364 105.156 132.076 104.743 132.489C104.624 132.608 104.368 134.05 104.368 134.375C104.368 134.701 104.99 139.55 105.435 139.727C105.88 139.904 111.882 138.77 112.15 138.59C112.417 138.41 112.269 136.991 112.298 136.724H112.295Z" fill="#B4221B"/>
<path d="M111.278 136.547C111.22 136.637 106.816 137.474 106.458 137.355C106.103 137.236 105.51 133.553 105.568 133.227C105.629 132.898 110.502 132.358 110.589 132.419C110.679 132.477 111.333 136.457 111.275 136.547H111.278Z" fill="#D9D8D6"/>
<path d="M102.874 100.584C102.987 102.073 105.156 115.128 105.452 117.113C105.638 118.352 107.577 118.68 107.409 116.965C107.17 114.567 105.002 101.439 104.801 100.526C104.505 99.1629 102.787 99.4304 102.877 100.584H102.874Z" fill="#B4221B"/>
<path d="M112.057 100.229C112.254 101.334 115.443 114.86 115.641 115.662C115.967 116.997 117.804 117.113 117.597 115.456C117.391 113.796 114.115 100.886 113.865 99.9649C113.568 98.8689 111.792 98.7498 112.057 100.232V100.229Z" fill="#B4221B"/>
<path d="M120.647 99.5463C120.987 100.817 124.214 113.087 124.557 114.299C124.94 115.663 126.571 115.424 126.365 114.122C126.211 113.145 123.283 102.331 122.365 99.401C121.926 97.994 120.321 98.3341 120.647 99.5492V99.5463Z" fill="#B4221B"/>
<path d="M129.237 98.7765C130.984 103.605 133.897 111.954 134.272 112.936C134.894 114.564 136.554 113.884 136.138 112.698C134.164 107.058 131.391 99.9597 130.984 98.8928C130.304 97.1167 128.812 97.6021 129.237 98.7736V98.7765Z" fill="#B4221B"/>
<path d="M104.563 107.308C107.318 107.012 108.147 106.715 107.97 105.145C107.769 103.366 107.199 102.924 104.74 103.16C101.691 103.453 101.185 103.782 101.214 105.677C101.24 107.311 102.368 107.544 104.56 107.305L104.563 107.308Z" fill="#B4221B"/>
<path d="M101.955 104.91C101.871 104.41 102.4 103.962 104.324 103.785C106.249 103.608 106.976 103.64 107.138 104.259C107.287 104.823 106.842 105.087 104.708 105.326C102.688 105.55 102.042 105.445 101.952 104.91H101.955Z" fill="#D9D8D6"/>
<path d="M116.025 112.848C118.667 112.468 118.795 111.959 118.542 110.418C118.304 108.968 117.801 108.581 115.49 108.819C112.99 109.075 112.356 109.47 112.321 111.337C112.292 112.848 113.15 113.261 116.025 112.848Z" fill="#B4221B"/>
<path d="M113.124 110.448C113.095 109.826 114.071 109.5 115.316 109.381C116.56 109.262 117.597 109.175 117.746 109.736C117.894 110.3 117.478 110.506 115.673 110.713C113.955 110.91 113.147 110.89 113.127 110.445L113.124 110.448Z" fill="#D9D8D6"/>
<path d="M122.691 103.962C125.089 103.666 126.097 103.785 126.481 105.236C127.089 107.52 126.481 107.872 123.757 108.256C121.1 108.631 120.173 108.349 120.173 107.012C120.173 104.73 120.586 104.221 122.691 103.959V103.962Z" fill="#B4221B"/>
<path d="M121.033 105.471C121.001 104.848 121.656 104.613 123.196 104.494C124.565 104.389 125.406 104.319 125.594 104.819C125.833 105.441 125.001 105.648 123.49 105.825C121.885 106.014 121.06 106.032 121.031 105.471H121.033Z" fill="#D9D8D6"/>
<path d="M131.682 102.776C134.58 102.497 134.76 101.718 134.347 100.111C134.022 98.8373 133.548 98.5466 131.118 98.7472C128.984 98.9246 128.097 99.1309 128.156 100.91C128.214 102.686 129.222 103.012 131.682 102.776Z" fill="#B4221B"/>
<path d="M128.807 100.169C128.775 99.6918 129.28 99.2499 130.911 99.1627C132.539 99.0726 133.222 99.1046 133.458 99.5465C133.693 99.9912 133.187 100.186 131.562 100.375C129.786 100.581 128.836 100.613 128.807 100.169Z" fill="#D9D8D6"/>
<path fill-rule="evenodd" clip-rule="evenodd" d="M123.481 85.2789C124.865 86.7004 128.882 90.5288 128.882 90.5288C128.97 91.994 129.641 93.4939 129.641 93.4939C131.025 93.7701 138.961 93.2178 138.961 93.2178L140.967 80.0289C138.528 76.7876 133.906 70.9824 133.906 70.9824C131.339 76.7091 128.138 82.0812 123.478 85.2789H123.481Z" fill="#FFC600"/>
<path fill-rule="evenodd" clip-rule="evenodd" d="M132.725 73.4766C135.371 76.494 139.188 81.4649 140.432 83.5637L140.969 80.026C138.531 76.7847 133.908 70.9795 133.908 70.9795C133.531 71.8225 133.132 72.6539 132.725 73.4766Z" fill="white"/>
<path fill-rule="evenodd" clip-rule="evenodd" d="M127.126 87.9299C125.906 86.9386 124.696 85.6305 124.086 85.0433C123.656 84.6276 123.045 85.616 123.379 86.0462C124.103 86.9764 125.661 88.2613 126.074 88.5665C126.565 88.9299 127.382 88.1363 127.126 87.9299Z" fill="#B4221B"/>
<path fill-rule="evenodd" clip-rule="evenodd" d="M141.618 80.2874C139.998 77.8659 135.51 71.6828 134.205 70.5723C133.865 70.2816 133.408 71.2932 133.693 71.6421C136.1 74.6101 137.958 77.3775 140.199 80.4415C140.522 80.8833 142.123 81.0403 141.618 80.2874Z" fill="#B4221B"/>
<path fill-rule="evenodd" clip-rule="evenodd" d="M128.536 91.2704C128.429 92.0495 129.004 93.4245 129.359 93.8547C129.635 94.189 130.263 93.5495 130.144 93.3547C129.629 92.5233 129.496 91.2239 129.606 90.5349C129.676 90.0989 128.618 90.6803 128.536 91.2704Z" fill="#B4221B"/>
<path fill-rule="evenodd" clip-rule="evenodd" d="M133.286 82.3949C134.089 79.2089 135.022 77.8019 136.321 78.0199C137.621 78.238 138.722 78.5723 139.22 79.5693C139.717 80.5664 139.871 80.7641 141.097 80.6653C142.324 80.5664 142.792 80.8513 143.211 81.8862C143.629 82.9211 143.472 82.8775 144.577 82.8949C145.682 82.9124 146.542 83.5606 146.679 84.8658C146.815 86.1711 147.01 86.2525 147.72 86.5025C148.426 86.7525 149.467 88.3077 148.327 90.3455C147.188 92.3803 144.592 96.5257 139.961 97.1594C136.676 99.8716 136.4 99.9443 135.327 100.244C134.156 101.805 132.211 102.444 131.388 101.918C130.711 102.343 129.548 101.465 129.324 100.066C129.1 98.671 131.955 91.4588 132.301 89.5286C130.15 90.6391 129.67 90.9879 128.161 91.4763C126.653 91.9646 125.307 92.1013 124.167 91.6885C123.028 91.2757 121.624 90.2641 123.932 89.2757C126.24 88.2873 131.06 85.799 133.289 82.3978L133.286 82.3949Z" fill="#FFC600"/>
<path fill-rule="evenodd" clip-rule="evenodd" d="M148.778 88.0931C148.632 87.2356 148.123 86.6455 147.714 86.503C147.007 86.253 146.81 86.1716 146.673 84.8664C146.591 84.096 146.243 83.5844 145.757 83.2676C145.339 83.096 144.812 82.9943 144.426 82.8955C143.493 82.8809 143.603 82.8693 143.205 81.8868C143.161 81.7792 143.112 81.7094 143.065 81.6164C142.812 81.2763 142.565 80.9682 142.356 80.8548C142.167 80.753 141.897 80.7065 141.609 80.6687C141.446 80.6629 141.292 80.6513 141.092 80.6687C139.923 80.7618 139.725 80.5757 139.278 79.6949C138.78 79.2414 138.17 78.7007 137.545 78.3199C137.164 78.1978 136.76 78.0961 136.315 78.0205C136.036 77.974 135.778 78.0176 135.53 78.1222C134.926 78.4798 134.432 79.2007 134.051 80.0147C133.778 80.6571 133.522 81.4362 133.281 82.3955C133.275 82.4042 133.266 82.4129 133.26 82.4216C133.208 82.6716 133.156 82.9216 133.115 83.1716C132.685 82.9681 130.734 86.0175 129.045 86.9768C128.249 87.4274 127.068 87.8867 125.958 88.3024C125.185 88.7036 124.481 89.035 123.926 89.2704C121.618 90.2588 123.025 91.2704 124.161 91.6832C124.35 91.753 124.554 91.785 124.754 91.8227C124.903 91.8402 125.048 91.8605 125.214 91.8722C125.254 91.003 126.635 90.1745 128.414 89.3838C130.036 88.6629 132.461 86.0699 133.022 83.8199C132.874 84.942 132.74 86.2704 132.243 88.5146C132.158 88.8954 132.062 89.2937 131.958 89.7007C132.071 89.6425 132.17 89.5902 132.295 89.5262C131.946 91.4565 129.094 98.6687 129.318 100.064C129.388 100.506 129.56 100.887 129.772 101.198C129.906 101.308 130.051 101.398 130.231 101.43C131.298 101.628 132.007 101.192 132.167 100.363C132.208 98.5466 133.865 94.282 134.458 92.7414C135.051 91.2007 135.525 86.66 135.999 85.3548C136.472 84.0524 138.289 82.6687 138.722 82.5902C139.155 82.5118 138.763 83.1426 138.368 83.9739C137.972 84.8024 136.077 91.5582 135.722 92.4274C135.368 93.2966 137.894 92.4274 138.725 90.7675C139.554 89.1076 140.542 85.317 142.676 85.1193C142.676 85.9885 142.519 86.9361 143.228 87.41C143.94 87.8838 145.638 86.8577 145.478 87.8053C145.321 88.753 146.385 89.189 146.385 90.1367C146.385 91.0844 144.49 94.7181 144.094 95.4303C144.266 95.3169 144.443 95.1716 144.621 95.0233C144.714 94.9477 144.807 94.8722 144.897 94.7937C145.513 94.2443 146.129 93.5495 146.69 92.8518C147.408 91.9216 147.946 91.0146 148.324 90.3431C148.644 89.7704 148.78 89.2414 148.812 88.7646C148.812 88.535 148.804 88.3082 148.78 88.0931H148.778Z" fill="white"/>
<path fill-rule="evenodd" clip-rule="evenodd" d="M149.313 87.9939C148.975 86.6974 148.783 86.3893 148.094 85.991C147.336 85.5521 147.359 85.6887 147.228 84.7236C146.987 82.9678 146.347 82.4474 144.795 82.4242C144.132 82.4125 143.879 82.0666 143.754 81.7614C143.063 80.087 142.112 80.0143 141.138 80.116C139.725 80.2643 140.193 80.0405 139.333 79.0143C138.897 78.494 138.374 78.0259 137.775 77.7352C136.377 77.055 135.1 77.4678 134.269 78.7062C133.688 79.5695 133.109 80.6277 132.894 81.5782C132.077 82.5666 131.411 83.7323 130.574 84.7032C128.606 86.9765 128.013 86.9765 125.382 88.1567C124.4 88.6073 123.516 88.8747 122.56 89.3718C122.115 89.6044 121.231 91.4416 124.129 92.366C125.182 92.7003 126.737 92.677 127.775 92.3311C129.034 91.9125 129.949 91.3078 131.249 90.7061C130.824 93.1625 130.025 94.77 129.382 96.7904C128.801 98.6218 127.911 101.424 130.414 102.098C130.458 102.442 131.272 102.866 131.926 102.994C133.394 103.287 134.449 102.255 135.243 101.154C136.653 100.942 139.467 98.3863 139.926 97.9619C140.775 97.6421 142.228 98.052 145.06 95.4968C146.074 94.5811 147.815 92.6189 148.682 91.0549C149.234 90.0579 149.624 89.1596 149.321 87.991L149.313 87.9939ZM128.879 90.4154C127.182 91.4358 125.946 91.7061 124.464 91.2439C122.836 90.7381 122.778 90.0927 124.318 89.584C125.885 89.0666 128.676 87.9678 129.906 86.8398C131.002 85.834 132.266 84.3893 132.752 83.712C132.42 85.4416 132.092 87.1683 131.76 88.898C131.536 88.93 129.266 90.1858 128.879 90.4183V90.4154ZM144.411 94.552C142.903 96.1218 142.836 95.9968 141.016 96.5869C142.583 95.2817 143.356 93.0608 144.083 91.2555C144.423 90.4067 144.731 89.5375 145.208 88.7613C146.626 86.4532 144.185 88.4561 143.455 90.4852C142.749 92.4474 142.016 93.6974 141.321 94.741C140.176 96.459 138.813 97.4968 135.97 99.4793C137.629 96.802 139.856 93.2642 140.888 90.3834C141.499 88.6771 141.906 87.2468 142.749 85.6712C143.298 84.6451 142.731 84.3777 141.211 87.0143C140.824 87.6858 140.525 88.6363 140.103 89.8137C139.426 91.7032 138.452 93.4735 137.56 95.2729C137.045 96.3107 134.769 99.9909 133.481 101.398C133.182 101.723 132.597 102.058 131.708 101.764C132.798 100.979 132.827 100.282 133.778 97.9881C134.475 96.3078 135.347 94.7119 135.955 92.9968C136.871 90.4154 137.472 87.7003 138.295 85.087C138.484 84.4852 138.728 83.9038 138.935 83.3079C139.44 81.8282 137.664 84.0928 137.33 85.334C136.664 87.805 136.019 90.2875 135.173 92.7032C134.589 94.3718 133.752 95.9474 133.042 97.5665C132.44 98.9444 131.978 101.584 130.339 100.898C129.112 100.383 129.964 98.0113 130.359 96.9532C131.252 94.5636 132.176 92.1102 132.638 89.5898C133.266 86.1771 133.502 81.5899 135.039 79.5288C136.095 78.1131 136.545 78.2498 137.9 79.0114C138.44 79.3137 138.74 79.7527 138.952 80.148C139.525 81.2178 139.688 81.3282 140.949 81.148C141.717 81.0375 142.124 80.9736 142.775 82.148C143.249 82.9997 143.243 83.3718 144.557 83.4271C145.882 83.4852 146.001 83.9881 146.185 85.1916C146.304 85.9648 146.452 86.2933 147.321 86.7991C148.054 87.2236 148.109 87.2207 148.228 88.1829C148.336 89.0375 148.31 89.2904 147.658 90.4387C146.929 91.7265 145.423 93.4881 144.403 94.5491L144.411 94.552Z" fill="#B4221B"/>
<path d="M48.4582 109.232C50.4146 111.247 56.5164 112.314 58.057 113.084C59.5977 113.854 65.464 121.438 66.8855 123.334C68.307 125.229 69.493 125.822 70.9727 125.11C72.5134 126.412 73.461 126.473 74.2314 124.872C76.7779 125.819 76.8389 125.404 77.2517 123.747C78.7924 123.866 79.5628 122.799 78.9697 120.665C78.3767 118.532 76.6587 112.965 76.1267 111.482C75.5948 110.002 71.9204 103.308 71.3273 102.715C70.7343 102.122 68.7198 100.997 68.7198 100.997C72.5105 100.7 75.118 98.7467 75.8302 96.9095C76.5424 95.0723 75.118 94.1247 72.868 95.3107C70.618 96.4967 68.0686 97.0869 63.3884 96.5549C58.7082 96.0229 56.1007 96.6741 55.4495 96.6741C51.3623 95.3107 48.6356 92.9415 44.1327 87.9648C39.6298 82.9881 31.5136 66.1044 31.5136 66.1044C34.8304 65.6887 39.749 65.6887 39.749 65.6887C37.7345 58.994 33.4699 46.9679 25.8275 44.3604C17.5921 46.8487 5.09217 51.2906 3.49334 53.1888C1.89451 55.0841 1.35963 58.2237 1.30149 60.9504C1.24335 63.6742 12.7346 80.2061 24.9991 90.6915C37.2635 101.177 41.2926 103.191 42.4176 104.081C43.5426 104.971 48.4612 109.235 48.4612 109.235L48.4582 109.232Z" fill="#FFC600"/>
<path fill-rule="evenodd" clip-rule="evenodd" d="M25.8276 44.3604C17.5921 46.8487 5.0922 51.2906 3.49337 53.1888C1.89454 55.0841 1.35965 58.2237 1.30152 60.9504C1.28698 61.5899 1.91779 62.9969 3.03697 64.9039C3.09511 60.9213 4.52824 56.2673 6.1387 54.8283C8.17939 53.0057 20.0427 48.7644 29.8101 46.7557C28.5979 45.6888 27.2752 44.8545 25.8276 44.3633V44.3604Z" fill="white"/>
<path fill-rule="evenodd" clip-rule="evenodd" d="M76.1267 111.485C75.5947 110.006 71.9203 103.311 71.3273 102.718C70.8477 102.238 69.4552 101.422 68.9349 101.122C66.4407 99.9448 63.9611 98.9855 63.9611 98.9855C67.7518 99.221 69.4901 99.064 71.15 98.3547C72.8099 97.6425 73.836 96.1425 74.6267 96.064C74.993 96.0262 75.5104 96.128 75.9988 96.2617C76.1645 94.8722 74.8331 94.2792 72.868 95.314C70.618 96.5001 68.0686 97.0902 63.3884 96.5582C58.7082 96.0262 56.1007 96.6774 55.4495 96.6774C51.3623 95.314 48.6356 92.9449 44.1327 87.9681C39.6298 82.9914 31.5136 66.1078 31.5136 66.1078C28.5717 60.2822 25.252 55.5439 22.8828 54.9101C21.0659 53.8055 18.8537 53.3317 18.2229 53.7241C17.5921 54.1194 21.6996 56.6456 24.3043 59.8869C27.5426 63.9159 30.9409 74.1048 34.7316 80.1077C37.5455 84.5641 46.278 94.5757 49.1094 96.5379C52.9786 99.2239 66.6442 102.067 68.5425 103.727C70.4378 105.387 73.9145 110.916 74.7052 112.259C75.4814 113.578 76.9465 120.541 79.1005 122.576C79.2197 122.087 79.1878 121.453 78.9726 120.671C78.3796 118.538 76.6616 112.971 76.1296 111.488L76.1267 111.485Z" fill="white"/>
<path fill-rule="evenodd" clip-rule="evenodd" d="M79.2458 120.128C78.1702 116.788 76.7546 111.108 75.0801 108.233C74.3156 106.919 73.3854 105.695 72.7982 104.294C71.9958 102.375 71.8389 102.14 70.1761 101.288C72.8214 101.047 75.1877 99.7794 76.2953 97.5091C77.4261 95.1951 75.6121 93.2678 73.3243 94.4248C71.7284 95.23 69.3825 96.387 67.1121 96.3899C64.054 96.3899 60.9523 95.6195 57.8971 95.6951C55.1965 95.762 55.4639 96.2184 53.743 95.5556C50.6297 94.355 48.4465 92.4335 44.8535 87.6661C39.9349 81.1399 35.8507 74.5208 32.5571 67.0702C34.7954 67.0383 37.6152 66.8173 39.8245 66.4016C40.4262 66.2883 39.9408 64.6342 39.4611 64.7243C36.2983 65.3086 34.8042 65.3784 31.8013 65.3755C29.6152 60.5528 27.8769 56.1459 22.6124 54.361C20.8333 53.7563 21.3856 54.6372 21.8333 54.8755C26.9059 57.5558 28.374 61.2621 30.6298 66.1139C34.3681 74.1516 35.5629 77.3987 43.371 88.0295C48.3971 94.8695 51.9669 96.5352 55.7837 97.4509C61.1703 98.7445 63.6209 99.1137 68.6267 101.727C70.7778 102.852 70.5773 102.602 71.7458 104.669C72.5017 106.003 73.2575 107.338 74.0162 108.669C75.6354 111.518 75.7923 112.817 76.772 116.131C77.0801 117.178 77.6237 119.192 78.2284 120.788C79.0191 122.875 78.3185 123.343 77.458 123.276C77.3272 121.814 76.4348 120.151 75.8127 118.617C75.5075 117.861 74.9261 116.035 74.397 114.593C73.8214 113.021 73.1034 112.061 72.2953 110.625C71.4057 109.05 70.5831 107.713 69.743 106.114C69.0976 104.884 69.2691 107.026 69.8563 108.105C70.429 109.16 71.022 110.317 71.6964 111.477C72.3214 112.556 73.1267 113.55 73.5133 114.736C73.9319 116.015 74.3534 117.294 74.772 118.573C75.3621 120.119 76.3389 121.997 76.5482 123.259C76.8272 124.933 75.8447 124.945 74.6441 124.512C74.8854 123.343 71.9522 116.977 71.7778 115.884C71.7081 115.442 69.6325 112.378 69.3069 111.884C68.4726 110.611 67.6063 109.355 66.8447 108.035C66.4435 107.34 66.2401 108.285 66.9174 109.747C67.2284 110.416 67.7837 111.25 68.5104 112.375C71.6993 117.297 69.9232 113.451 72.3389 119.98C72.7284 121.038 73.0336 122.128 73.4464 123.175C74.2487 125.215 73.147 125.657 71.6354 124.835C71.8069 124.14 71.836 123.619 71.3389 122.768C70.4116 121.178 69.8621 119.596 69.1877 118.486C68.2924 117.015 67.5424 116.087 67.2342 115.643C66.1296 114.038 65.0075 112.442 63.9581 110.803C63.6877 110.378 63.0773 109.974 63.8186 112.018C64.0337 112.611 64.4843 113.306 65.2139 114.358C66.0511 115.567 66.9784 116.57 67.7459 117.829C68.5714 119.18 68.9755 120.492 70.3796 123.143C71.2662 124.823 70.1819 125.425 68.7371 124.241C67.2953 123.061 65.5656 120.497 64.0889 118.454C62.6819 116.509 59.9494 112.596 57.7895 112.117C53.4669 111.154 50.4204 110.224 47.1878 107.125C44.0105 104.082 43.0687 103.608 39.2663 101.146C31.2373 95.948 22.5513 87.8405 15.313 79.9365C10.8973 75.1167 5.81301 69.515 3.01651 63.5993C1.75489 60.9278 1.67931 60.0412 2.33919 57.143C3.28976 52.986 4.92638 52.9598 8.62986 51.1924C14.0746 48.5907 21.656 46.2564 27.5019 45.0093C28.4583 44.8058 27.3129 43.6663 26.3507 43.8814C19.6385 45.3639 14.3769 47.1953 8.16183 49.8785C3.21418 52.0151 1.94675 52.1459 0.90024 56.9773C0.0688485 60.8174 0.728729 63.0179 2.68802 66.4162C5.45545 71.2185 10.2171 76.5382 13.9409 80.6254C21.0368 88.4132 29.1559 96.2067 37.6588 102.076C41.5105 104.733 42.5657 104.768 46.0279 108.073C50.0628 111.928 52.0279 112.183 57.0017 113.367C59.4494 113.951 61.3796 117.183 62.9668 119.195C64.3825 120.992 66.5598 124.332 68.4988 125.48C69.1587 125.869 70.2081 126.111 70.9552 125.733C71.429 126.227 73.8389 127.053 74.4493 125.622C75.2255 126.067 77.2633 126.16 77.5278 124.326C78.99 124.465 80.208 123.137 79.2429 120.125L79.2458 120.128ZM75.1063 97.1515C73.5482 99.9131 71.0395 100.117 68.1412 100.323C67.9465 100.274 65.1558 98.3201 58.0511 96.8579C60.0366 96.637 64.0395 97.2126 67.0337 97.387C69.1587 97.512 71.8098 96.4509 73.6383 95.448C75.5016 94.4248 75.8272 95.8724 75.1063 97.1515Z" fill="#B4221B"/>
<path fill-rule="evenodd" clip-rule="evenodd" d="M44.9321 106.744C43.6589 104.61 43.5106 101.116 46.0281 98.212C48.5455 95.308 51.2722 94.4504 53.8769 95.3981C54.2606 94.3021 52.4554 93.4417 51.7141 93.1481C50.9728 92.8516 46.1443 91.2818 42.7694 96.4068C39.3915 101.532 40.1909 104.79 42.3856 106.212C44.5775 107.633 44.6676 106.863 44.9321 106.744Z" fill="#D9D8D6"/>
<path fill-rule="evenodd" clip-rule="evenodd" d="M49.7606 95.4014C51.4699 94.4217 52.1792 94.7851 53.8768 95.4014C54.2605 94.3054 52.4553 93.445 51.714 93.1514C51.0106 92.8694 46.6356 91.4537 43.3042 95.6775C45.1821 95.2618 48.3943 94.2473 49.7577 95.4014H49.7606Z" fill="white"/>
<path fill-rule="evenodd" clip-rule="evenodd" d="M52.6647 93.1195C49.8799 91.4015 45.7345 91.1631 42.0601 96.3201C38.2607 101.651 39.8101 104.852 42.2374 106.689C44.4031 108.326 45.9991 108.082 46.6502 107.608C46.2345 107.015 45.4642 106.512 45.4642 106.512C43.8043 104.794 44.6066 100.468 46.6182 98.3375C48.6328 96.2038 51.5368 95.0788 53.4322 95.9073C53.906 96.0846 54.438 96.2038 54.438 96.2038C54.9118 95.4334 54.8711 94.4858 52.6618 93.1224L52.6647 93.1195ZM45.3479 98.0381C43.9264 99.698 42.0601 104.378 44.252 106.599C40.5194 105.058 39.72 101.474 43.2752 96.6747C46.6415 92.1311 50.7112 92.5875 53.3159 94.7503C50.8566 94.0701 47.4002 95.6427 45.3479 98.0381Z" fill="#B4221B"/>
</svg>
