<?xml version="1.0" encoding="UTF-8"?>
<svg id="_Слой_2" data-name="Слой 2" xmlns="http://www.w3.org/2000/svg" viewBox="0 0 16.52 27.95">
  <defs>
    <style>
      .cls-1 {
        fill: #b4221b;
      }
    </style>
  </defs>
  <g id="design">
    <path class="cls-1" d="M.26,2.9c.99,4.13,4.29,14.8,4.9,16.6.7,2.06,1.28,2.44,2.58.5.48-.72,2.21-3.65,2.21-3.65,0,0,3.97,8.33,5,10.29,1.03,1.96,2.12,1.94,1.27-1.63-1.03-4.35-2.93-11.93-3.74-14.85-.65-2.37-1.14-2.22-2.42-.82-.66.73-2.77,3.2-2.77,3.2,0,0-4.05-8.41-5.19-10.72C.8-.85-.59-.65.26,2.9Z"/>
  </g>
</svg>