<?xml version="1.0" encoding="UTF-8"?>
<svg id="_Слой_2" data-name="Слой 2" xmlns="http://www.w3.org/2000/svg" viewBox="0 0 11.56 14.77">
  <defs>
    <style>
      .cls-1 {
        fill: #b4221b;
      }
    </style>
  </defs>
  <g id="design">
    <path class="cls-1" d="M4.99,10.53c-2.48-.82-5.84,1.42-4.79,3.29,1.12,1.99,5.2.54,5.8-1.55.6-2.09,1.93-7.98,1.93-7.98.89.79,1.34,1.52,1.45,2.47.15,1.26.68,2.45,1.28,3.21.75.97,1.14.5.77-.39-.48-1.18.05-2.84-.51-4.85-.5-1.8-1.97-3.77-2.6-4.34s-1.07-.61-1.29.41c-.23,1.02-2.04,9.72-2.04,9.72Z"/>
  </g>
</svg>