<?xml version="1.0" encoding="UTF-8"?>
<svg id="_Слой_2" data-name="Слой 2" xmlns="http://www.w3.org/2000/svg" viewBox="0 0 19.09 12.85">
  <defs>
    <style>
      .cls-1 {
        fill: #b4221b;
      }
    </style>
  </defs>
  <g id="design">
    <path class="cls-1" d="M5.06,5.26C4.46,3.84.25,3.37.01,5.49c-.24,2.15,3.51,2.88,4.77,1.93,1-.75,5.91-4.89,5.91-4.89,1.42.63,3.78,1.85,5.16,2.96-.63.87-3.94,4.69-3.94,4.69-1.06-1.18-5-1.42-4.97.67.04,1.86,3.9,2.56,5.04,1.5,1.14-1.06,6.62-7.01,6.94-7.45.32-.43.19-1-.47-1.54-1.06-.87-4.1-2.6-5.52-3.19-.88-.37-1.81-.12-2.48.39-.67.51-5.4,4.69-5.4,4.69Z"/>
  </g>
</svg>